<svg _ngcontent-vth-c35="" width="700" height="161" viewBox="16 3 108 50" fill="none" xmlns="http://www.w3.org/2000/svg" class="arrow"><path _ngcontent-vth-c35="" d="M1.10456 1.11506C0.854807 0.997252 0.747847 0.699286 0.865657 0.449534C0.983467 0.199783 1.28143 0.092824 1.53118 0.210633L1.10456 1.11506ZM113.303 0.662848L109.96 5.37016L107.555 0.121526L113.303 0.662848ZM1.53118 0.210633C2.39891 0.619946 3.27185 1.02 4.14989 1.41068L3.74337 2.32432C2.85859 1.93064 1.97894 1.52752 1.10456 1.11506L1.53118 0.210633ZM9.46426 3.63565C11.248 4.33642 13.0508 4.99916 14.8717 5.62288L14.5477 6.56892C12.7127 5.9404 10.896 5.27256 9.09859 4.56639L9.46426 3.63565ZM20.362 7.36835C22.1996 7.90801 24.0541 8.40843 25.9243 8.86866L25.6854 9.8397C23.8007 9.37592 21.932 8.87164 20.0802 8.32783L20.362 7.36835ZM31.5479 10.1211C33.4249 10.4957 35.3164 10.8302 37.2214 11.1236L37.0692 12.1119C35.1496 11.8163 33.2436 11.4792 31.3522 11.1017L31.5479 10.1211ZM42.9333 11.8749C44.8345 12.0826 46.748 12.2496 48.6728 12.375L48.6078 13.3729C46.6684 13.2465 44.7404 13.0783 42.8247 12.869L42.9333 11.8749ZM54.4289 12.6243C55.387 12.645 56.3475 12.6554 57.3106 12.6554V13.6554C56.3404 13.6554 55.3726 13.6449 54.4074 13.6241L54.4289 12.6243ZM57.3106 12.6554C58.2736 12.6554 59.2341 12.645 60.1922 12.6243L60.2138 13.6241C59.2485 13.6449 58.2808 13.6554 57.3106 13.6554V12.6554ZM65.9483 12.375C67.8731 12.2496 69.7866 12.0826 71.6878 11.8749L71.7964 12.869C69.8807 13.0783 67.9527 13.2465 66.0133 13.3729L65.9483 12.375ZM77.3997 11.1236C79.3047 10.8302 81.1962 10.4957 83.0732 10.1211L83.2689 11.1017C81.3775 11.4792 79.4715 11.8163 77.5519 12.1119L77.3997 11.1236ZM88.6968 8.86866C90.5671 8.40843 92.4215 7.90801 94.2592 7.36835L94.5409 8.32783C92.6891 8.87164 90.8204 9.37593 88.9357 9.8397L88.6968 8.86866ZM99.7494 5.62288C101.57 4.99916 103.373 4.33642 105.157 3.63565L105.523 4.5664C103.725 5.27256 101.908 5.9404 100.073 6.56892L99.7494 5.62288ZM1.10456 1.11506C0.854807 0.997252 0.747847 0.699286 0.865657 0.449534C0.983467 0.199783 1.28143 0.092824 1.53118 0.210633L1.10456 1.11506ZM113.303 0.662848L109.96 5.37016L107.555 0.121526L113.303 0.662848ZM1.53118 0.210633C2.39891 0.619946 3.27185 1.02 4.14989 1.41068L3.74337 2.32432C2.85859 1.93064 1.97894 1.52752 1.10456 1.11506L1.53118 0.210633ZM9.46426 3.63565C11.248 4.33642 13.0508 4.99916 14.8717 5.62288L14.5477 6.56892C12.7127 5.9404 10.896 5.27256 9.09859 4.56639L9.46426 3.63565ZM20.362 7.36835C22.1996 7.90801 24.0541 8.40843 25.9243 8.86866L25.6854 9.8397C23.8007 9.37592 21.932 8.87164 20.0802 8.32783L20.362 7.36835ZM31.5479 10.1211C33.4249 10.4957 35.3164 10.8302 37.2214 11.1236L37.0692 12.1119C35.1496 11.8163 33.2436 11.4792 31.3522 11.1017L31.5479 10.1211ZM42.9333 11.8749C44.8345 12.0826 46.748 12.2496 48.6728 12.375L48.6078 13.3729C46.6684 13.2465 44.7404 13.0783 42.8247 12.869L42.9333 11.8749ZM54.4289 12.6243C55.387 12.645 56.3475 12.6554 57.3106 12.6554V13.6554C56.3404 13.6554 55.3726 13.6449 54.4074 13.6241L54.4289 12.6243ZM57.3106 12.6554C58.2736 12.6554 59.2341 12.645 60.1922 12.6243L60.2138 13.6241C59.2485 13.6449 58.2808 13.6554 57.3106 13.6554V12.6554ZM65.9483 12.375C67.8731 12.2496 69.7866 12.0826 71.6878 11.8749L71.7964 12.869C69.8807 13.0783 67.9527 13.2465 66.0133 13.3729L65.9483 12.375ZM77.3997 11.1236C79.3047 10.8302 81.1962 10.4957 83.0732 10.1211L83.2689 11.1017C81.3775 11.4792 79.4715 11.8163 77.5519 12.1119L77.3997 11.1236ZM88.6968 8.86866C90.5671 8.40843 92.4215 7.90801 94.2592 7.36835L94.5409 8.32783C92.6891 8.87164 90.8204 9.37593 88.9357 9.8397L88.6968 8.86866ZM99.7494 5.62288C101.57 4.99916 103.373 4.33642 105.157 3.63565L105.523 4.5664C103.725 5.27256 101.908 5.9404 100.073 6.56892L99.7494 5.62288Z" fill="#AFAFAF"></path></svg>