<svg _ngcontent-vth-c35="" width="700" height="161" viewBox="16 3 108 103" fill="none" xmlns="http://www.w3.org/2000/svg" class="arrow"><path _ngcontent-vth-c35="" d="M1.19245 13.0403C0.942698 13.1581 0.835738 13.4561 0.953548 13.7059C1.07136 13.9556 1.36932 14.0626 1.61907 13.9448L1.19245 13.0403ZM113.391 13.4925L110.048 8.78523L107.643 14.0339L113.391 13.4925ZM1.61907 13.9448C2.4868 13.5354 3.35974 13.1354 4.23778 12.7447L3.83126 11.8311C2.94648 12.2248 2.06683 12.6279 1.19245 13.0403L1.61907 13.9448ZM9.55215 10.5197C11.3359 9.81898 13.1387 9.15623 14.9596 8.53252L14.6356 7.58647C12.8006 8.21499 10.9839 8.88284 9.18648 9.589L9.55215 10.5197ZM20.4499 6.78705C22.2875 6.24739 24.142 5.74696 26.0122 5.28673L25.7733 4.3157C23.8886 4.77947 22.0199 5.28375 20.1681 5.82756L20.4499 6.78705ZM31.6358 4.03432C33.5128 3.65971 35.4043 3.32524 37.3093 3.03184L37.1571 2.04349C35.2375 2.33914 33.3315 2.67618 31.4401 3.05366L31.6358 4.03432ZM43.0212 2.28048C44.9224 2.07279 46.8359 1.90581 48.7607 1.78043L48.6957 0.782543C46.7563 0.908872 44.8283 1.07712 42.9126 1.28639L43.0212 2.28048ZM54.5168 1.53109C55.4749 1.5104 56.4354 1.5 57.3984 1.5V0.5C56.4282 0.5 55.4605 0.510476 54.4952 0.531321L54.5168 1.53109ZM57.3984 1.5C58.3615 1.5 59.322 1.5104 60.2801 1.53109L60.3017 0.531321C59.3364 0.510476 58.3687 0.5 57.3984 0.5V1.5ZM66.0362 1.78043C67.961 1.90581 69.8745 2.07279 71.7757 2.28048L71.8843 1.28639C69.9686 1.07712 68.0406 0.908872 66.1012 0.782543L66.0362 1.78043ZM77.4876 3.03184C79.3926 3.32524 81.2841 3.65971 83.1611 4.03432L83.3568 3.05366C81.4654 2.67618 79.5594 2.33914 77.6398 2.04349L77.4876 3.03184ZM88.7847 5.28673C90.6549 5.74696 92.5094 6.24739 94.347 6.78705L94.6288 5.82756C92.777 5.28375 90.9083 4.77947 89.0236 4.3157L88.7847 5.28673ZM99.8373 8.53252C101.658 9.15623 103.461 9.81898 105.245 10.5197L105.61 9.589C103.813 8.88284 101.996 8.21499 100.161 7.58647L99.8373 8.53252ZM1.19245 13.0403C0.942698 13.1581 0.835738 13.4561 0.953548 13.7059C1.07136 13.9556 1.36932 14.0626 1.61907 13.9448L1.19245 13.0403ZM113.391 13.4925L110.048 8.78523L107.643 14.0339L113.391 13.4925ZM1.61907 13.9448C2.4868 13.5354 3.35974 13.1354 4.23778 12.7447L3.83126 11.8311C2.94648 12.2248 2.06683 12.6279 1.19245 13.0403L1.61907 13.9448ZM9.55215 10.5197C11.3359 9.81898 13.1387 9.15623 14.9596 8.53252L14.6356 7.58647C12.8006 8.21499 10.9839 8.88284 9.18648 9.589L9.55215 10.5197ZM20.4499 6.78705C22.2875 6.24739 24.142 5.74696 26.0122 5.28673L25.7733 4.3157C23.8886 4.77947 22.0199 5.28375 20.1681 5.82756L20.4499 6.78705ZM31.6358 4.03432C33.5128 3.65971 35.4043 3.32524 37.3093 3.03184L37.1571 2.04349C35.2375 2.33914 33.3315 2.67618 31.4401 3.05366L31.6358 4.03432ZM43.0212 2.28048C44.9224 2.07279 46.8359 1.90581 48.7607 1.78043L48.6957 0.782543C46.7563 0.908872 44.8283 1.07712 42.9126 1.28639L43.0212 2.28048ZM54.5168 1.53109C55.4749 1.5104 56.4354 1.5 57.3984 1.5V0.5C56.4282 0.5 55.4605 0.510476 54.4952 0.531321L54.5168 1.53109ZM57.3984 1.5C58.3615 1.5 59.322 1.5104 60.2801 1.53109L60.3017 0.531321C59.3364 0.510476 58.3687 0.5 57.3984 0.5V1.5ZM66.0362 1.78043C67.961 1.90581 69.8745 2.07279 71.7757 2.28048L71.8843 1.28639C69.9686 1.07712 68.0406 0.908872 66.1012 0.782543L66.0362 1.78043ZM77.4876 3.03184C79.3926 3.32524 81.2841 3.65971 83.1611 4.03432L83.3568 3.05366C81.4654 2.67618 79.5594 2.33914 77.6398 2.04349L77.4876 3.03184ZM88.7847 5.28673C90.6549 5.74696 92.5094 6.24739 94.347 6.78705L94.6288 5.82756C92.777 5.28375 90.9083 4.77947 89.0236 4.3157L88.7847 5.28673ZM99.8373 8.53252C101.658 9.15623 103.461 9.81898 105.245 10.5197L105.61 9.589C103.813 8.88284 101.996 8.21499 100.161 7.58647L99.8373 8.53252Z" fill="#AFAFAF"></path></svg>