 <svg width="121" height="20" viewBox="0 0 121 20" fill="none" xmlns="http://www.w3.org/2000/svg">
      <path d="M7 11.4793C7 8.7041 8.91064 6.66578 11.7755 6.66578C12.575 6.66402 13.3608 6.87341 14.0535 7.27279V2.53314H16.5868V16.1428H14.1229L14.0669 15.6478L13.5517 15.8875C12.9611 16.1709 12.3163 16.3237 11.6613 16.3355C8.92856 16.3265 7 14.2882 7 11.4793ZM11.8494 14.0127C12.2629 14.0156 12.672 13.9276 13.0478 13.7551L14.058 13.3071V9.72326C13.4555 9.25975 12.7233 8.99587 11.9636 8.96841C10.4584 8.96841 9.55798 10.0525 9.55798 11.4681C9.5535 12.9286 10.4539 14.0127 11.8494 14.0127Z" fill="black"/>
      <path d="M19.8101 2C20.7464 2 21.443 2.64285 21.443 3.56794C21.443 4.52438 20.7464 5.14931 19.8101 5.14931C19.3943 5.14931 18.9955 4.98413 18.7014 4.69008C18.4074 4.39603 18.2422 3.99722 18.2422 3.58138C18.2422 3.16553 18.4074 2.76672 18.7014 2.47268C18.9955 2.17863 19.3943 2.01344 19.8101 2.01344V2ZM18.5603 6.8494H21.0757V16.1428H18.5603V6.8494Z" fill="black"/>
      <path d="M25.347 19.6707L22.0073 18.4589L22.8339 16.2907L26.0862 17.4487C26.5201 17.6111 26.9803 17.6916 27.4436 17.6861C28.8234 17.6861 29.3923 16.9156 29.3923 15.2446V14.987L28.8592 15.211C28.2693 15.4749 27.6327 15.6188 26.9866 15.6344C24.3368 15.6299 22.4553 13.7327 22.4553 11.1478C22.4553 8.56297 24.3301 6.66801 27.139 6.66801C28.0355 6.6581 28.9159 6.90697 29.6745 7.38478L29.968 6.85168H31.9324V15.5403C31.9324 18.4231 30.1404 20.0022 27.3965 20.0022C26.7004 19.9978 26.0091 19.886 25.347 19.6707ZM27.2017 13.3877C27.5923 13.3914 27.9795 13.3151 28.3396 13.1638L29.3878 12.7606V9.5687C28.7876 9.15071 28.0784 8.91715 27.3473 8.89672C25.8062 8.89672 24.9416 9.87108 24.9416 11.1568C24.9416 12.4425 25.8152 13.3877 27.2017 13.3877Z" fill="black"/>
      <path d="M35.1422 2C36.0807 2 36.7773 2.64285 36.7773 3.56794C36.7773 4.52438 36.0807 5.14931 35.1422 5.14931C34.7263 5.14931 34.3275 4.98413 34.0335 4.69008C33.7394 4.39603 33.5742 3.99722 33.5742 3.58138C33.5742 3.16553 33.7394 2.76672 34.0335 2.47268C34.3275 2.17863 34.7263 2.01344 35.1422 2.01344V2ZM33.8945 6.8494H36.4099V16.1428H33.8945V6.8494Z" fill="black"/>
      <path d="M39.0039 13.5916V9.12745H37.2231V6.84946H39.0039V4.29596H41.5395V6.84946H44.2565V9.12745H41.5395V13.4079C41.5395 13.7013 41.6313 13.885 41.9426 13.885C42.2894 13.8555 42.6298 13.7747 42.9528 13.6453L44.1646 13.2601L44.8635 15.4082L43.7794 15.7957C42.9528 16.0891 42.0905 16.3265 41.4655 16.3265C39.8125 16.3265 39.0039 15.6299 39.0039 13.5916Z" fill="black"/>
      <path d="M45.2598 13.3519C45.2598 11.4413 46.7471 10.3773 48.7495 10.3773C49.5996 10.377 50.435 10.5986 51.1731 11.0202V9.66053C51.1731 9.08935 51.0074 8.88776 50.3108 8.88776C49.5201 8.88776 47.5557 9.20135 46.1602 9.45894L45.8108 7.27279C46.9487 7.07119 49.4462 6.66577 50.4384 6.66577C52.4969 6.66577 53.6527 7.5483 53.6527 9.64037V16.1361H51.1731V15.5313L50.5863 15.8808C50.0259 16.1937 49.3911 16.3485 48.7495 16.3287C46.7471 16.3265 45.2598 15.2446 45.2598 13.3519ZM49.2916 14.4539C49.6536 14.4514 50.0106 14.3696 50.3376 14.2143L51.1642 13.8111V12.9151C50.761 12.4918 50.0621 12.2543 49.2916 12.2543C48.2635 12.2543 47.7237 12.6575 47.7237 13.3743C47.7393 14.0306 48.2724 14.4539 49.3006 14.4539H49.2916Z" fill="black"/>
      <path d="M55.5615 2.53314H58.0702V16.1428H55.5615V2.53314Z" fill="black"/>
      <path d="M63.1689 2.53418H65.6866V16.1439H63.1689V2.53418Z" fill="black"/>
      <path d="M66.7686 11.4938C66.7686 8.72083 68.827 6.66235 71.7098 6.66235C74.5926 6.66235 76.6443 8.72531 76.6443 11.4938C76.6443 14.2624 74.5746 16.3276 71.7165 16.3276C68.8584 16.3276 66.7686 14.2893 66.7686 11.4938ZM71.7165 14.0137C73.2038 14.0137 74.0863 12.9677 74.0863 11.4983C74.0863 10.0289 73.1971 8.98066 71.7165 8.98066C70.2359 8.98066 69.3221 10.0289 69.3221 11.4938C69.3221 12.9587 70.2225 14.0137 71.7165 14.0137Z" fill="black"/>
      <path d="M80.1027 19.6719L76.7607 18.4601L77.5873 16.2918L80.8374 17.4499C81.272 17.6123 81.733 17.6928 82.197 17.6873C83.5745 17.6873 84.1435 16.9168 84.1435 15.2458V14.9882L83.6104 15.2122C83.0206 15.4766 82.384 15.6205 81.7378 15.6355C79.0925 15.6355 77.202 13.7428 77.202 11.1557C77.202 8.56861 79.0746 6.67589 81.8857 6.67589C82.7815 6.6659 83.6612 6.9148 84.419 7.39266L84.7079 6.8506H86.6746V15.5392C86.6746 18.422 84.8827 20.0011 82.1365 20.0011C81.4457 19.9958 80.7599 19.8848 80.1027 19.6719ZM81.9573 13.3889C82.3486 13.3924 82.7366 13.3162 83.0974 13.1649L84.1435 12.7617V9.56985C83.5439 9.15228 82.8355 8.91874 82.1052 8.89788C80.5619 8.89788 79.6995 9.87224 79.6995 11.158C79.6995 12.4437 80.5619 13.3889 81.9573 13.3889Z" fill="black"/>
      <path d="M89.9005 2.0011C90.8367 2.0011 91.5356 2.64395 91.5356 3.56904C91.5356 4.52548 90.8367 5.15041 89.9005 5.15041C89.6946 5.15041 89.4907 5.10986 89.3004 5.03106C89.1102 4.95227 88.9374 4.83677 88.7918 4.69118C88.6462 4.54558 88.5307 4.37273 88.4519 4.1825C88.3731 3.99227 88.3325 3.78838 88.3325 3.58247C88.3325 3.37657 88.3731 3.17268 88.4519 2.98245C88.5307 2.79222 88.6462 2.61937 88.7918 2.47378C88.9374 2.32818 89.1102 2.21268 89.3004 2.13389C89.4907 2.05509 89.6946 2.01454 89.9005 2.01454V2.0011ZM88.6506 6.8505H91.1682V16.1439H88.6506V6.8505Z" fill="black"/>
      <path d="M93.126 6.85054H95.4779V7.65915C96.3522 7.04523 97.3869 6.70033 98.4547 6.66687C100.822 6.66687 102.108 8.246 102.108 10.6718V16.1439H99.5747V11.0571C99.5747 9.64147 99.0237 9.04117 97.9216 9.04117C97.1668 9.04117 96.3044 9.44435 95.6436 9.92369V16.1484H93.126V6.85054Z" fill="black"/>
      <path d="M111.354 15.1471C113.643 15.1471 115.5 13.2909 115.5 11.0011C115.5 8.71124 113.643 6.85498 111.354 6.85498C109.064 6.85498 107.208 8.71124 107.208 11.0011C107.208 13.2909 109.064 15.1471 111.354 15.1471Z" fill="#0059FF"/>
      </svg>