<svg _ngcontent-vth-c35="" width="92" height="92" viewBox="0 0 46 46" fill="none" xmlns="http://www.w3.org/2000/svg" class="digital-icons"><path _ngcontent-vth-c35="" d="M0.219238 22.5777C0.219238 10.1084 10.3276 0 22.7969 0C35.2663 0 45.3746 10.1084 45.3746 22.5777C45.3746 35.047 35.2663 45.1554 22.7969 45.1554H0.219238V22.5777Z" fill="url(#paint0_linear_28_102)"></path><defs _ngcontent-vth-c35=""><linearGradient _ngcontent-vth-c35="" id="paint0_linear_28_102" x1="22.7969" y1="0" x2="22.7969" y2="45.1554" gradientUnits="userSpaceOnUse"><stop _ngcontent-vth-c35="" stop-color="#742BFA"></stop><stop _ngcontent-vth-c35="" offset="1" stop-color="#9A47E9"></stop></linearGradient></defs><svg _ngcontent-vth-c35="" x="30%" y="30%" width="18" height="22" viewBox="0 0 18 22" fill="none" xmlns="http://www.w3.org/2000/svg"><path _ngcontent-vth-c35="" d="M9 0C11.3869 0 13.6761 0.953927 15.364 2.65193C17.0518 4.34993 18 6.65291 18 9.05424C18 12.8802 15.3277 17.0498 10.0523 21.6076C9.75898 21.8611 9.38498 22.0003 8.99827 22C8.61157 21.9997 8.23781 21.8598 7.94492 21.6057L7.596 21.3012C2.55415 16.8623 0 12.7948 0 9.05424C0 6.65291 0.948212 4.34993 2.63604 2.65193C4.32387 0.953927 6.61305 0 9 0ZM9 5.57184C8.08194 5.57184 7.20149 5.93874 6.55232 6.59181C5.90316 7.24489 5.53846 8.13065 5.53846 9.05424C5.53846 9.97783 5.90316 10.8636 6.55232 11.5167C7.20149 12.1698 8.08194 12.5366 9 12.5366C9.91806 12.5366 10.7985 12.1698 11.4477 11.5167C12.0968 10.8636 12.4615 9.97783 12.4615 9.05424C12.4615 8.13065 12.0968 7.24489 11.4477 6.59181C10.7985 5.93874 9.91806 5.57184 9 5.57184Z" fill="white"></path></svg></svg>