<svg width="100" height="100" viewBox="0 0 100 100" fill="none" xmlns="http://www.w3.org/2000/svg">
<path d="M88.0723 49.1777L88.0803 51.9188L90.5601 53.3595L90.5521 50.6185L89.4847 49.9964L89.1637 49.8118L88.0723 49.1777Z" fill="#EFAC41"/>
<path d="M90.5488 50.6202L90.5589 53.3578L93.0539 51.916L93.0457 49.1808V49.1768H93.0416L91.9592 49.8041L91.7132 49.9477L91.6394 49.9887L90.5488 50.6202Z" fill="#F9BB4A"/>
<path d="M88.0708 49.1803L90.5504 50.6211L91.6403 49.9899L91.9559 49.8114L91.9622 49.8083L93.0459 49.1803L90.5663 47.7395L88.0708 49.1803Z" fill="#FED57A"/>
<path d="M89.1599 48.5491L91.6395 49.9899L91.955 49.8114L91.9614 49.8082L89.4754 48.3674L89.4722 48.3706L89.1599 48.5491Z" fill="#E4E8F4"/>
<path d="M91.9635 50.4607L91.6424 50.6494L91.6384 49.9965V49.9885L91.7106 49.9483L91.9594 49.8079V49.8119L91.9635 50.4607Z" fill="#D4DAE8"/>
<path d="M90.9014 52.1949L90.9827 52.3496L90.9323 52.3786L90.8213 52.4423L90.9014 52.1949Z" fill="#3F434F"/>
<path d="M90.9326 52.3785L90.9334 52.6844L90.8727 52.7195L90.8718 52.4136L90.9326 52.3785Z" fill="#3F434F"/>
<path d="M91.2342 52.5381L91.2344 52.6036L90.8151 52.8456L90.8149 52.7802L91.2342 52.5381Z" fill="#3F434F"/>
<path d="M92.0002 51.5787L92.0008 51.7967C92.001 51.8655 91.9612 51.9455 91.9084 51.986L91.909 52.1824C91.946 52.1654 91.9739 52.167 91.974 52.1875L91.8105 52.2819C91.8105 52.2613 91.8383 52.2276 91.8753 52.2019L91.8748 52.0054C91.8506 52.0151 91.8298 52.0127 91.8135 52.0025C91.7943 51.9882 91.7817 51.9615 91.7816 51.9232L91.781 51.7053L92.0002 51.5787Z" fill="#3F434F"/>
<path d="M91.1752 52.2383L91.1761 52.5442L91.1154 52.5792L91.1145 52.2733L91.1752 52.2383Z" fill="#3F434F"/>
<path d="M91.1448 52.0543L91.2257 52.2092L91.1753 52.2383L91.0647 52.3017L91.1448 52.0543Z" fill="#3F434F"/>
<path d="M91.5547 52.4915C91.5433 52.4853 91.5367 52.4723 91.5367 52.4561L91.5349 51.8016C91.5345 51.773 91.5549 51.7379 91.58 51.7232L92.1486 51.395C92.1623 51.3871 92.1762 51.3861 92.1874 51.3924C92.1985 51.3989 92.205 51.412 92.205 51.4285L92.207 52.083C92.207 52.1116 92.1872 52.1466 92.1629 52.1608L91.5943 52.489C91.5864 52.4935 91.5784 52.4959 91.571 52.4959C91.5651 52.4959 91.5596 52.4945 91.5547 52.4915ZM92.1607 51.4157L91.5921 51.744C91.5745 51.7541 91.5588 51.7816 91.5588 51.8016L91.5606 52.4561C91.5608 52.4633 91.5629 52.4686 91.5665 52.4708C91.5702 52.4723 91.5757 52.4719 91.5821 52.4682L92.1507 52.14C92.168 52.13 92.1831 52.1033 92.1831 52.083L92.1811 51.4285C92.1811 51.421 92.1789 51.4153 92.1754 51.4132C92.1742 51.4126 92.1729 51.4122 92.1713 51.4122C92.1684 51.4122 92.1646 51.4134 92.1607 51.4157V51.4157Z" fill="#3F434F"/>
<path d="M90.7079 52.9801C90.6968 52.9736 90.6905 52.9607 90.6905 52.9448L90.6887 52.2903C90.6883 52.2615 90.7087 52.2262 90.7338 52.2119L91.3024 51.8835C91.3161 51.8754 91.3298 51.8745 91.3412 51.8811C91.3525 51.8876 91.3588 51.9007 91.3588 51.917L91.3608 52.5717C91.3608 52.6009 91.3414 52.6352 91.3165 52.6495L90.7479 52.9777C90.7403 52.9822 90.7322 52.9844 90.7248 52.9844C90.7187 52.9844 90.713 52.983 90.7079 52.9801V52.9801ZM91.3145 51.9042L90.7459 52.2327C90.7283 52.2429 90.7126 52.2701 90.7126 52.2903L90.7144 52.9448C90.7144 52.9518 90.7165 52.9571 90.7201 52.9593C90.7238 52.961 90.7297 52.9605 90.7359 52.9569L91.3043 52.6287C91.3216 52.6187 91.3369 52.5921 91.3369 52.5717L91.3349 51.917C91.3349 51.9095 91.3327 51.904 91.3292 51.9019C91.328 51.9013 91.3265 51.9009 91.3249 51.9009C91.322 51.9009 91.3184 51.9021 91.3145 51.9042V51.9042Z" fill="#3F434F"/>
<path d="M85.1279 50.8804L85.136 53.6214L87.6158 55.0622L87.6077 52.3211L86.5404 51.6991L86.2194 51.5145L85.1279 50.8804Z" fill="#EFAC41"/>
<path d="M87.6045 52.3228L87.6146 55.0604L90.1096 53.6186L90.1014 50.8835V50.8794H90.0973L89.0149 51.5068L88.7689 51.6503L88.6951 51.6913L87.6045 52.3228Z" fill="#F9BB4A"/>
<path d="M85.1265 50.8829L87.606 52.3237L88.696 51.6926L89.0115 51.5141L89.0179 51.5109L90.1015 50.8829L87.622 49.4421L85.1265 50.8829Z" fill="#FED57A"/>
<path d="M86.2156 50.2518L88.6951 51.6925L89.0107 51.514L89.017 51.5109L86.5311 50.0701L86.5279 50.0733L86.2156 50.2518Z" fill="#E4E8F4"/>
<path d="M89.0191 52.1634L88.6981 52.352L88.6941 51.6991V51.6911L88.7663 51.651L89.0151 51.5105V51.5145L89.0191 52.1634Z" fill="#D4DAE8"/>
<path d="M87.9573 53.8975L88.0386 54.0521L87.9882 54.0812L87.8772 54.1448L87.9573 53.8975Z" fill="#3F434F"/>
<path d="M87.9882 54.0812L87.9891 54.3871L87.9284 54.4221L87.9275 54.1162L87.9882 54.0812Z" fill="#3F434F"/>
<path d="M88.2898 54.2407L88.29 54.3062L87.8708 54.5483L87.8706 54.4828L88.2898 54.2407Z" fill="#3F434F"/>
<path d="M89.0558 53.2814L89.0565 53.4993C89.0567 53.5682 89.0169 53.6481 88.9641 53.6886L88.9647 53.8851C89.0017 53.868 89.0296 53.8696 89.0297 53.8901L88.8662 53.9845C88.8662 53.964 88.894 53.9302 88.931 53.9045L88.9304 53.7081C88.9063 53.7177 88.8854 53.7154 88.8692 53.7051C88.85 53.6909 88.8374 53.6641 88.8373 53.6259L88.8367 53.4079L89.0558 53.2814Z" fill="#3F434F"/>
<path d="M88.2311 53.9409L88.232 54.2468L88.1713 54.2819L88.1704 53.976L88.2311 53.9409Z" fill="#3F434F"/>
<path d="M88.2005 53.757L88.2813 53.9118L88.231 53.9409L88.1204 54.0043L88.2005 53.757Z" fill="#3F434F"/>
<path d="M88.6104 54.1942C88.599 54.1879 88.5923 54.175 88.5923 54.1587L88.5906 53.5042C88.5902 53.4756 88.6106 53.4405 88.6356 53.4258L89.2042 53.0976C89.218 53.0898 89.2319 53.0888 89.243 53.095C89.2542 53.1015 89.2607 53.1146 89.2607 53.1311L89.2626 53.7856C89.2626 53.8142 89.2428 53.8493 89.2185 53.8634L88.65 54.1916C88.6421 54.1961 88.6341 54.1985 88.6266 54.1985C88.6208 54.1985 88.6153 54.1971 88.6104 54.1942V54.1942ZM89.2164 53.1184L88.6478 53.4466C88.6302 53.4568 88.6145 53.4842 88.6145 53.5042L88.6163 54.1587C88.6164 54.166 88.6186 54.1712 88.6221 54.1734C88.6259 54.175 88.6313 54.1746 88.6378 54.1709L89.2064 53.8426C89.2236 53.8326 89.2387 53.806 89.2387 53.7856L89.2368 53.1311C89.2368 53.1237 89.2346 53.118 89.2311 53.1158C89.2299 53.1152 89.2285 53.1148 89.227 53.1148C89.224 53.1148 89.2203 53.116 89.2164 53.1184Z" fill="#3F434F"/>
<path d="M87.7636 54.6827C87.7524 54.6762 87.7462 54.6633 87.7462 54.6474L87.7444 53.9929C87.744 53.9641 87.7644 53.9288 87.7895 53.9145L88.358 53.5861C88.3718 53.5781 88.3855 53.5771 88.3968 53.5838C88.4082 53.5902 88.4145 53.6034 88.4145 53.6196L88.4164 54.2743C88.4164 54.3035 88.397 54.3378 88.3721 54.3521L87.8036 54.6803C87.7959 54.6848 87.7879 54.687 87.7804 54.687C87.7744 54.687 87.7687 54.6856 87.7636 54.6827V54.6827ZM88.3702 53.6069L87.8016 53.9353C87.784 53.9455 87.7683 53.9727 87.7683 53.9929L87.7701 54.6474C87.7701 54.6545 87.7722 54.6598 87.7757 54.6619C87.7795 54.6637 87.7853 54.6631 87.7916 54.6596L88.36 54.3313C88.3772 54.3213 88.3925 54.2947 88.3925 54.2743L88.3906 53.6196C88.3906 53.6122 88.3884 53.6067 88.3849 53.6045C88.3837 53.6039 88.3821 53.6035 88.3806 53.6035C88.3776 53.6035 88.3741 53.6047 88.3702 53.6069V53.6069Z" fill="#3F434F"/>
<path d="M3.42296 82.7755L2.7002 82.3555L5.66568 74.6246L6.38844 75.0447L3.42296 82.7755Z" fill="#3C3E4B"/>
<path d="M6.38829 75.0448L5.66553 74.6248L12.5923 70.6292L13.315 71.0492L6.38829 75.0448Z" fill="#4E5161"/>
<path d="M13.3151 71.0491L16.0403 75.4242L3.42285 82.7756L6.38833 75.0447L13.3151 71.0491Z" fill="#464957"/>
<path d="M8.43872 82.1298L8.44055 82.7755L15.7442 78.5598L15.7423 77.9141L8.43872 82.1298Z" fill="#3F434F"/>
<path d="M15.7432 77.9171V78.5587L34.9843 89.8018C35.6734 90.2058 36.7983 90.2058 37.4953 89.8018C37.8439 89.5959 38.0181 89.3344 38.0181 89.073V88.4314C38.0102 88.6928 37.8439 88.9543 37.4953 89.1523C36.7903 89.5562 35.6734 89.5562 34.9843 89.1523L15.7432 77.9171Z" fill="#525566"/>
<path d="M3.72823 81.9623L3.42285 82.7717L25.1592 95.4722C25.8562 95.8762 26.9731 95.8762 27.6702 95.4722C28.0187 95.2663 28.1929 95.0049 28.2009 94.7435V94.094C28.1929 94.3633 28.0187 94.6247 27.6702 94.8227C26.9731 95.2267 25.8562 95.2267 25.1592 94.8227L3.72823 81.9623Z" fill="#525566"/>
<path d="M3.7312 81.9619L25.159 94.8245C25.8523 95.2275 26.9714 95.2275 27.6694 94.8245C28.0183 94.6231 28.1912 94.3603 28.1977 94.0945C28.1941 93.8347 28.0242 93.5719 27.6775 93.3704L8.43867 82.1297L15.7423 77.914L34.9811 89.1547C35.6745 89.5576 36.7936 89.5577 37.4915 89.1547C37.8405 88.9532 38.0134 88.6904 38.0148 88.4276C38.0163 88.1649 37.8464 87.9021 37.4997 87.7006L15.7586 75.0057L3.7312 81.9619Z" fill="#5B5E71"/>
<path d="M27.5751 76.0778L27.5527 81.592L11.49 91.066L11.5123 85.5518L27.5751 76.0778Z" fill="#EFAC41"/>
<path d="M14.8791 85.7788L14.8717 88.0968L12.7729 89.3165L12.7803 86.9985L14.8791 85.7788Z" fill="#E4E8F4"/>
<path d="M11.5122 85.5518L11.4899 91.066L5.06592 87.3571L5.08823 81.8429L11.5122 85.5518Z" fill="#F9BB4A"/>
<path d="M27.5765 76.0821L11.5122 85.5561L8.706 83.9314L7.89363 83.4719L7.87725 83.4637L5.0874 81.8472L21.1517 72.3733L23.958 73.9898L23.9662 73.998L24.7703 74.4575L27.5765 76.0821Z" fill="#FED57A"/>
<path d="M24.7702 74.4575L8.70595 83.9314L7.89357 83.4719L7.8772 83.4637L23.9579 73.9897L23.9661 73.998L24.7702 74.4575Z" fill="#5B5E71"/>
<path d="M8.70595 83.9314L8.69839 86.5982L7.8772 86.1292L7.88476 83.4624L8.70595 83.9314Z" fill="#474B59"/>
<path d="M24.938 80.6149L25.1591 81.0356L25.0221 81.1146L24.72 81.2878L24.938 80.6149Z" fill="#3F434F"/>
<path d="M25.0222 81.1146L25.0245 81.9469L24.8593 82.0423L24.8569 81.21L25.0222 81.1146Z" fill="#3F434F"/>
<path d="M25.8429 81.5486L25.8434 81.7267L24.7027 82.3854L24.7021 82.2072L25.8429 81.5486Z" fill="#3F434F"/>
<path d="M27.0554 79.3923L27.0571 79.9853C27.0576 80.1726 26.9494 80.3901 26.8058 80.5003L26.8073 81.0348C26.908 80.9884 26.984 80.9927 26.9841 81.0486L26.5394 81.3054C26.5392 81.2495 26.6149 81.1576 26.7156 81.0877L26.7141 80.5533C26.6484 80.5795 26.5917 80.5731 26.5474 80.5453C26.4952 80.5064 26.461 80.4337 26.4607 80.3297L26.459 79.7367L27.0554 79.3923Z" fill="#3F434F"/>
<path d="M25.6831 80.733L25.6854 81.5653L25.5202 81.6607L25.5178 80.8284L25.6831 80.733Z" fill="#3F434F"/>
<path d="M25.5998 80.2327L25.8198 80.654L25.6829 80.7331L25.3818 80.9056L25.5998 80.2327Z" fill="#3F434F"/>
<path d="M7.44139 86.6439L7.24463 87.0183L7.36649 87.0887L7.63539 87.2428L7.44139 86.6439Z" fill="#4C7891"/>
<path d="M7.3666 87.0886L7.3645 87.8292L7.51154 87.9141L7.51364 87.1735L7.3666 87.0886Z" fill="#4C7891"/>
<path d="M6.63619 87.4749L6.63574 87.6334L7.65089 88.2195L7.65134 88.0609L6.63619 87.4749Z" fill="#4C7891"/>
<path d="M5.55716 85.556L5.55567 86.0837C5.55519 86.2504 5.65149 86.4439 5.77932 86.542L5.77797 87.0177C5.68831 86.9763 5.62071 86.9802 5.62057 87.0299L6.01636 87.2585C6.0165 87.2087 5.94915 87.1269 5.85954 87.0648L5.86089 86.5891C5.91933 86.6124 5.96979 86.6068 6.0092 86.582C6.0557 86.5474 6.08614 86.4827 6.08641 86.3901L6.0879 85.8625L5.55716 85.556Z" fill="#4C7891"/>
<path d="M6.77847 86.7491L6.77637 87.4898L6.92341 87.5747L6.92551 86.834L6.77847 86.7491Z" fill="#4C7891"/>
<path d="M6.85224 86.3037L6.65649 86.6787L6.77835 86.749L7.04624 86.9025L6.85224 86.3037Z" fill="#4C7891"/>
<path d="M34.859 80.2411L34.8367 85.7553L18.7739 95.2293L18.7962 89.7151L34.859 80.2411Z" fill="#EFAC41"/>
<path d="M22.163 89.9421L22.1556 92.2602L20.0569 93.4798L20.0642 91.1618L22.163 89.9421Z" fill="#E4E8F4"/>
<path d="M18.7961 89.7151L18.7738 95.2293L12.3499 91.5204L12.3722 86.0062L18.7961 89.7151Z" fill="#F9BB4A"/>
<path d="M34.8605 80.2455L18.7962 89.7194L15.9899 88.0947L15.1776 87.6352L15.1612 87.6271L12.3713 86.0106L28.4357 76.5366L31.2419 78.1531L31.2501 78.1613L32.0542 78.6208L34.8605 80.2455Z" fill="#FED57A"/>
<path d="M32.0542 78.6208L15.9899 88.0947L15.1775 87.6352L15.1611 87.627L31.2419 78.1531L31.2501 78.1613L32.0542 78.6208Z" fill="#5B5E71"/>
<path d="M15.9899 88.0947L15.9823 90.7615L15.1611 90.2925L15.1687 87.6257L15.9899 88.0947Z" fill="#474B59"/>
<path d="M32.2219 84.7782L32.443 85.1989L32.3061 85.278L32.0039 85.4511L32.2219 84.7782Z" fill="#3F434F"/>
<path d="M32.3061 85.278L32.3085 86.1102L32.1432 86.2056L32.1409 85.3733L32.3061 85.278Z" fill="#3F434F"/>
<path d="M33.1268 85.7119L33.1273 85.8901L31.9866 86.5487L31.9861 86.3705L33.1268 85.7119Z" fill="#3F434F"/>
<path d="M34.3393 83.5557L34.341 84.1487C34.3415 84.3359 34.2333 84.5534 34.0897 84.6637L34.0912 85.1981C34.192 85.1517 34.2679 85.156 34.2681 85.212L33.8233 85.4687C33.8232 85.4128 33.8988 85.3209 33.9995 85.2511L33.998 84.7166C33.9323 84.7428 33.8756 84.7365 33.8314 84.7086C33.7791 84.6698 33.7449 84.597 33.7446 84.493L33.7429 83.9L34.3393 83.5557Z" fill="#3F434F"/>
<path d="M32.967 84.8964L32.9693 85.7286L32.8041 85.824L32.8018 84.9918L32.967 84.8964Z" fill="#3F434F"/>
<path d="M32.884 84.3959L33.104 84.8172L32.9671 84.8963L32.666 85.0688L32.884 84.3959Z" fill="#3F434F"/>
<path d="M14.7253 90.8074L14.5286 91.1818L14.6504 91.2521L14.9193 91.4062L14.7253 90.8074Z" fill="#4C7891"/>
<path d="M14.6505 91.2521L14.6484 91.9927L14.7955 92.0776L14.7976 91.337L14.6505 91.2521Z" fill="#4C7891"/>
<path d="M13.9201 91.6383L13.9197 91.7968L14.9348 92.3829L14.9353 92.2244L13.9201 91.6383Z" fill="#4C7891"/>
<path d="M12.8411 89.7195L12.8396 90.2472C12.8391 90.4138 12.9354 90.6073 13.0633 90.7055L13.0619 91.1811C12.9722 91.1398 12.9046 91.1436 12.9045 91.1934L13.3003 91.4219C13.3004 91.3722 13.2331 91.2904 13.1435 91.2282L13.1448 90.7526C13.2033 90.7759 13.2537 90.7702 13.2931 90.7455C13.3396 90.7109 13.3701 90.6462 13.3703 90.5536L13.3718 90.0259L12.8411 89.7195Z" fill="#4C7891"/>
<path d="M14.0624 90.9126L14.0603 91.6532L14.2073 91.7381L14.2094 90.9975L14.0624 90.9126Z" fill="#4C7891"/>
<path d="M14.1362 90.4672L13.9404 90.8421L14.0623 90.9125L14.3302 91.066L14.1362 90.4672Z" fill="#4C7891"/>
<path d="M28.5591 73.7816L28.5368 79.2958L17.9775 85.5242L17.9998 80.01L28.5591 73.7816Z" fill="#EFAC41"/>
<path d="M21.3666 80.2369L21.3593 82.555L19.2605 83.7746L19.2678 81.4566L21.3666 80.2369Z" fill="#E4E8F4"/>
<path d="M17.9997 80.0099L17.9774 85.5241L11.5535 81.8152L11.5758 76.301L17.9997 80.0099Z" fill="#F9BB4A"/>
<path d="M28.5606 73.786L17.9998 80.0143L15.1936 78.3896L14.3812 77.9301L14.3648 77.9219L11.575 76.3054L22.1358 70.0771L24.942 71.6936L24.9502 71.7019L25.7543 72.1614L28.5606 73.786Z" fill="#FED57A"/>
<path d="M25.7543 72.1613L15.1935 78.3895L14.3811 77.93L14.3647 77.9219L24.942 71.6936L24.9502 71.7018L25.7543 72.1613Z" fill="#5B5E71"/>
<path d="M15.1935 78.3895L15.1859 81.0563L14.3647 80.5873L14.3723 77.9205L15.1935 78.3895Z" fill="#474B59"/>
<path d="M25.9219 78.3187L26.143 78.7394L26.006 78.8185L25.7039 78.9917L25.9219 78.3187Z" fill="#3F434F"/>
<path d="M26.006 78.8185L26.0084 79.6507L25.8432 79.7461L25.8408 78.9139L26.006 78.8185Z" fill="#3F434F"/>
<path d="M26.8268 79.2524L26.8273 79.4306L25.6865 80.0892L25.686 79.9111L26.8268 79.2524Z" fill="#3F434F"/>
<path d="M28.0393 77.0962L28.041 77.6892C28.0415 77.8764 27.9333 78.0939 27.7896 78.2042L27.7912 78.7387C27.8919 78.6922 27.9679 78.6966 27.968 78.7525L27.5233 79.0093C27.5231 78.9534 27.5988 78.8615 27.6995 78.7916L27.698 78.2571C27.6323 78.2833 27.5756 78.277 27.5313 78.2491C27.4791 78.2103 27.4448 78.1376 27.4446 78.0335L27.4429 77.4405L28.0393 77.0962Z" fill="#3F434F"/>
<path d="M26.6669 78.4369L26.6693 79.2692L26.5041 79.3646L26.5017 78.5323L26.6669 78.4369Z" fill="#3F434F"/>
<path d="M26.584 77.9364L26.8039 78.3578L26.667 78.4368L26.366 78.6093L26.584 77.9364Z" fill="#3F434F"/>
<path d="M13.9289 81.1022L13.7322 81.4766L13.854 81.5469L14.1229 81.701L13.9289 81.1022Z" fill="#4C7891"/>
<path d="M13.8542 81.5469L13.8521 82.2875L13.9991 82.3724L14.0012 81.6318L13.8542 81.5469Z" fill="#4C7891"/>
<path d="M13.1237 81.9331L13.1233 82.0917L14.1384 82.6777L14.1389 82.5192L13.1237 81.9331Z" fill="#4C7891"/>
<path d="M12.0447 80.0143L12.0432 80.542C12.0427 80.7086 12.139 80.9021 12.2669 81.0003L12.2655 81.4759C12.1759 81.4346 12.1083 81.4384 12.1081 81.4882L12.5039 81.7167C12.504 81.6669 12.4367 81.5852 12.3471 81.523L12.3484 81.0474C12.4069 81.0707 12.4573 81.0651 12.4967 81.0403C12.5432 81.0057 12.5737 80.941 12.574 80.8484L12.5755 80.3207L12.0447 80.0143Z" fill="#4C7891"/>
<path d="M13.266 81.2074L13.2639 81.948L13.411 82.0329L13.4131 81.2923L13.266 81.2074Z" fill="#4C7891"/>
<path d="M13.3398 80.762L13.144 81.1369L13.2659 81.2073L13.5338 81.3608L13.3398 80.762Z" fill="#4C7891"/>
<path d="M72.2647 43.5299L49.2128 30.0467L15.0557 23.9908L72.3036 57.2597L72.2647 43.5299Z" fill="#BB72F7"/>
<path d="M97.0434 29.2237L56.8935 5.84766L44.4824 7.17562L84.6323 30.5517L97.0434 29.2237Z" fill="#2F873B"/>
<path d="M99.2309 27.555L59.081 4.17896L44.4785 5.74551L84.6284 29.1216L99.2309 27.555Z" fill="#6B5766"/>
<path d="M84.6324 30.5518L44.4824 7.17578L32.1147 20.1539L72.2647 43.5299L84.6324 30.5518Z" fill="#2F873B"/>
<path d="M84.6323 30.5517L72.2646 43.5298L72.3036 57.2596L97.0824 42.9536L97.0434 29.2238L84.6323 30.5517Z" fill="#D0A3FB"/>
<path d="M70.075 44.3881L29.925 21.0121L30.3641 21.9882L70.5141 45.3642L70.075 44.3881Z" fill="#AEB7C4"/>
<path d="M84.6283 29.1217L44.4784 5.74561L29.925 21.0122L70.075 44.3882L84.6283 29.1217Z" fill="#8A7084"/>
<path d="M43.1089 60.363L2.95898 36.9869L2.99791 50.7168L43.1478 74.0928L43.1089 60.363Z" fill="#BB72F7"/>
<path d="M2.9978 50.7169L43.1478 74.0931Z" fill="#CAD0DD"/>
<path d="M67.8876 46.057L27.7377 22.6809L15.3369 24.0029L55.4868 47.379L67.8876 46.057Z" fill="#2F873B"/>
<path d="M70.0751 44.3881L29.9251 21.0121L15.333 22.5727L55.4829 45.9487L70.0751 44.3881Z" fill="#6B5766"/>
<path d="M55.487 47.3789L15.3371 24.0028L2.95898 36.9869L43.1089 60.3629L55.487 47.3789Z" fill="#2F873B"/>
<path d="M55.487 47.3789L43.1089 60.3629L43.1478 74.0928L67.9266 59.7867L67.8877 46.0569L55.487 47.3789Z" fill="#D0A3FB"/>
<path d="M40.9192 61.2213L0.769287 37.8452L1.20838 38.8213L41.3583 62.1973L40.9192 61.2213Z" fill="#6B5766"/>
<path d="M55.4829 45.9487L15.3329 22.5726L0.769287 37.8452L40.9192 61.2212L55.4829 45.9487Z" fill="#8A7084"/>
<path d="M84.6283 29.1216L70.075 44.3882L70.514 45.3643L84.6323 30.5518L98.7986 29.0342L99.2308 27.5551L84.6283 29.1216Z" fill="#6B5766"/>
<path d="M55.4828 45.9488L40.9192 61.2213L41.3583 62.1974L55.4869 47.379L69.6429 45.8673L70.075 44.3882L55.4828 45.9488Z" fill="#6B5766"/>
<path d="M11.2972 47.8165L10.1782 47.1736V51.0928L11.2972 50.6508V47.8165Z" fill="#A35AE8"/>
<path d="M11.2971 47.8165V50.6508L16.4306 53.6171L16.4558 50.7808L11.2971 47.8165Z" fill="#F1DFFF"/>
<path d="M32.801 60.2332V63.0675L37.9597 66.0316V63.1972L32.801 60.2332Z" fill="#F1DFFF"/>
<path d="M16.4307 53.617L11.2972 50.6508L10.1782 51.0928L16.4212 54.7L16.4307 53.617Z" fill="#8E31E6"/>
<path d="M22.0488 54.025V56.8593L27.2075 59.8234V56.9891L22.0488 54.025Z" fill="#F1DFFF"/>
<path d="M22.0489 54.025L20.9299 53.3821V57.3011L22.0489 56.8593V54.025Z" fill="#A35AE8"/>
<path d="M22.0489 56.8593L20.9299 57.3011V57.3013L27.2076 60.9083V59.8233L22.0489 56.8593Z" fill="#8E31E6"/>
<path d="M32.8009 60.2332L31.6819 59.5903V63.5094L32.8009 63.0676V60.2332Z" fill="#A35AE8"/>
<path d="M32.8009 63.0675L31.6819 63.5093V63.5095L37.9596 67.1165V66.0316L32.8009 63.0675Z" fill="#8E31E6"/>
<path d="M60.9815 63.8025L51.652 69.1915L51.6094 58.7118L60.9389 53.3441L60.9815 63.8025Z" fill="#F1DFFF"/>
<path d="M91.4479 46.2058L91.4062 35.7524L82.0771 41.1249L91.3228 46.2475L91.4479 46.2058Z" fill="#8E49C3"/>
<path d="M82.1114 51.5762V50.4686L82.0902 47.6357V44.185L82.0688 43.2478V41.1178L82.8143 41.5225L83.9433 42.1615L84.2627 42.3319L85.3917 42.9709L85.6898 43.12V43.1413H85.7111L85.7324 43.1627L85.8389 43.2265H85.8602L85.8815 43.2478L85.9667 43.2905H85.988L86.0307 43.3117L86.1158 43.3543V43.3756H86.1371L86.1798 43.3969L86.2863 43.4608L86.8188 43.759L87.2448 43.9933L87.5642 44.1637L87.6069 44.2064H87.6282L88.6932 44.8027L88.9914 44.9518L89.0553 44.9945L89.0979 45.0158L89.2044 45.0796L89.247 45.1009L89.3535 45.1648L89.3961 45.1861H89.4173L89.4813 45.2501H89.5026L89.5453 45.2714L89.6304 45.3139H89.6517L90.9723 46.0595H90.9937L91.3131 46.2511L82.1114 51.5762Z" fill="#4C7891"/>
<path d="M87.9632 41.167L87.9542 44.0043L85.3853 45.4972L85.3942 42.6599L87.9632 41.167Z" fill="#EFAC41"/>
<path d="M87.6649 41.709V42.1575L87.6624 42.2034V42.6418L85.6821 43.7937V43.628L85.6847 43.5108V43.1336L85.6872 43.0138V42.8609L87.6649 41.709Z" fill="#E4E8F4"/>
<path d="M85.3943 42.6599L85.3853 45.4972L82.7996 44.0043L82.8085 41.167L85.3943 42.6599Z" fill="#F9BB4A"/>
<path d="M87.9638 41.1688L85.3942 42.6616L84.2647 42.0077L83.9377 41.8227L83.9311 41.8194L82.8081 41.1688L85.3777 39.6759L86.5072 40.3266L86.5105 40.3299L86.8342 40.5148L87.9638 41.1688Z" fill="#FED57A"/>
<path d="M86.8343 40.5148L84.2647 42.0076L83.9377 41.8227L83.9312 41.8194L86.5073 40.3265L86.5106 40.3298L86.8343 40.5148Z" fill="#EFAC41"/>
<path d="M84.2647 42.0076L84.2617 43.081L83.9312 42.8923L83.9342 41.8188L84.2647 42.0076Z" fill="#EFAC41"/>
<path d="M85.9662 44.2458L86.0552 44.4152L86 44.447L85.8784 44.5167L85.9662 44.2458Z" fill="#3F434F"/>
<path d="M86.0001 44.447L86.0011 44.782L85.9345 44.8204L85.9336 44.4854L86.0001 44.447Z" fill="#3F434F"/>
<path d="M86.3305 44.6217L86.3307 44.6934L85.8715 44.9585L85.8713 44.8868L86.3305 44.6217Z" fill="#3F434F"/>
<path d="M86.8184 43.7538L86.8191 43.9925C86.8193 44.0678 86.7758 44.1554 86.7179 44.1998L86.7186 44.4149C86.7591 44.3962 86.7897 44.398 86.7898 44.4205L86.6107 44.5238C86.6107 44.5013 86.6411 44.4643 86.6817 44.4362L86.681 44.2211C86.6546 44.2316 86.6318 44.2291 86.614 44.2179C86.5929 44.2022 86.5792 44.1729 86.579 44.1311L86.5784 43.8924L86.8184 43.7538Z" fill="#3F434F"/>
<path d="M86.2662 44.2935L86.2672 44.6285L86.2007 44.6669L86.1997 44.3319L86.2662 44.2935Z" fill="#3F434F"/>
<path d="M86.2328 44.092L86.3213 44.2616L86.2662 44.2935L86.145 44.3629L86.2328 44.092Z" fill="#3F434F"/>
<path d="M87.6648 42.1575L87.6622 42.2033L85.6846 43.3451V43.3018L87.6648 42.1575Z" fill="#A4A9B3"/>
<path d="M87.6622 42.3206V42.369L85.6846 43.5107V43.4648L87.6622 42.3206Z" fill="#A4A9B3"/>
<path d="M87.6623 42.4862V42.5346L85.6821 43.6764V43.628L87.6623 42.4862Z" fill="#A4A9B3"/>
<path d="M87.6648 41.9918V42.0377L85.6846 43.182V43.1336L87.6648 41.9918Z" fill="#A4A9B3"/>
<path d="M87.6649 41.8262V41.872L85.6873 43.0138V42.9679L87.6649 41.8262Z" fill="#A4A9B3"/>
<path d="M91.263 43.0721L91.254 45.9095L88.6851 47.4024L88.694 44.565L91.263 43.0721Z" fill="#EFAC41"/>
<path d="M90.9647 43.6141V44.0627L90.9621 44.1086V44.5469L88.9819 45.6988V45.5332L88.9845 45.416V45.0388L88.987 44.919V44.7661L90.9647 43.6141Z" fill="#E4E8F4"/>
<path d="M88.6941 44.565L88.6851 47.4024L86.0994 45.9095L86.1083 43.0721L88.6941 44.565Z" fill="#F9BB4A"/>
<path d="M91.2636 43.0739L88.694 44.5668L87.5644 43.9128L87.2375 43.7279L87.2309 43.7246L86.1079 43.0739L88.6775 41.5811L89.807 42.2317L89.8103 42.235L90.134 42.42L91.2636 43.0739Z" fill="#FED57A"/>
<path d="M90.1341 42.42L87.5645 43.9128L87.2375 43.7278L87.231 43.7246L89.8071 42.2317L89.8104 42.235L90.1341 42.42Z" fill="#EFAC41"/>
<path d="M87.5645 43.9128L87.5615 44.9862L87.231 44.7974L87.234 43.724L87.5645 43.9128Z" fill="#EFAC41"/>
<path d="M89.266 46.151L89.355 46.3203L89.2999 46.3522L89.1782 46.4219L89.266 46.151Z" fill="#3F434F"/>
<path d="M89.2999 46.3522L89.3009 46.6872L89.2343 46.7256L89.2334 46.3906L89.2999 46.3522Z" fill="#3F434F"/>
<path d="M89.6303 46.5269L89.6305 46.5986L89.1713 46.8637L89.1711 46.792L89.6303 46.5269Z" fill="#3F434F"/>
<path d="M90.1182 45.6589L90.1189 45.8976C90.1191 45.973 90.0756 46.0605 90.0178 46.1049L90.0184 46.3201C90.0589 46.3014 90.0895 46.3031 90.0896 46.3256L89.9105 46.429C89.9105 46.4065 89.9409 46.3695 89.9815 46.3414L89.9809 46.1262C89.9544 46.1368 89.9316 46.1342 89.9138 46.123C89.8927 46.1074 89.879 46.0781 89.8789 46.0362L89.8782 45.7975L90.1182 45.6589Z" fill="#3F434F"/>
<path d="M89.566 46.1986L89.567 46.5336L89.5005 46.572L89.4995 46.237L89.566 46.1986Z" fill="#3F434F"/>
<path d="M89.5326 45.9972L89.6211 46.1668L89.566 46.1986L89.4448 46.2681L89.5326 45.9972Z" fill="#3F434F"/>
<path d="M90.9646 44.0626L90.962 44.1085L88.9844 45.2502V45.2069L90.9646 44.0626Z" fill="#A4A9B3"/>
<path d="M90.962 44.2257V44.2741L88.9844 45.4159V45.37L90.962 44.2257Z" fill="#A4A9B3"/>
<path d="M90.9621 44.3914V44.4398L88.9819 45.5815V45.5331L90.9621 44.3914Z" fill="#A4A9B3"/>
<path d="M90.9646 43.897V43.9429L88.9844 45.0872V45.0387L90.9646 43.897Z" fill="#A4A9B3"/>
<path d="M90.9647 43.7313V43.7772L88.9871 44.9189V44.8731L90.9647 43.7313Z" fill="#A4A9B3"/>
<path d="M84.969 42.8739L84.9601 45.7112L82.3911 47.2041L82.4001 44.3668L84.969 42.8739Z" fill="#EFAC41"/>
<path d="M84.6705 43.4159V43.8644L84.668 43.9103V44.3487L82.6877 45.5006V45.335L82.6903 45.2177V44.8405L82.6928 44.7207V44.5678L84.6705 43.4159Z" fill="#E4E8F4"/>
<path d="M82.4095 44.3767V45.1648L82.3882 46.4855V47.2097L82.0901 47.0392V44.1851L82.4095 44.3767Z" fill="#F9BB4A"/>
<path d="M84.9443 42.8858L82.9208 44.0786H82.8995L82.4096 44.3767L82.0902 44.1851L82.0688 43.2478V41.5652L82.3883 41.3734L82.8143 41.629L83.5172 42.0337L83.8367 42.2255L83.9433 42.2893L84.2627 42.4811L84.9443 42.8858Z" fill="#FED57A"/>
<path d="M83.8367 42.2255L82.793 42.8218L82.0688 43.2478V42.8644L82.8143 42.4384L83.5172 42.0337L83.8367 42.2255Z" fill="#EFAC41"/>
<path d="M82.972 45.9528L83.061 46.1221L83.0059 46.1539L82.8843 46.2236L82.972 45.9528Z" fill="#3F434F"/>
<path d="M83.006 46.1539L83.0069 46.4889L82.9404 46.5273L82.9395 46.1923L83.006 46.1539Z" fill="#3F434F"/>
<path d="M83.3364 46.3286L83.3366 46.4003L82.8774 46.6654L82.8772 46.5937L83.3364 46.3286Z" fill="#3F434F"/>
<path d="M83.8243 45.4607L83.825 45.6994C83.8252 45.7748 83.7816 45.8623 83.7238 45.9067L83.7244 46.1218C83.765 46.1031 83.7956 46.1049 83.7956 46.1274L83.6166 46.2307C83.6165 46.2082 83.647 46.1712 83.6875 46.1431L83.6869 45.928C83.6605 45.9385 83.6377 45.936 83.6198 45.9248C83.5988 45.9091 83.585 45.8799 83.5849 45.838L83.5842 45.5993L83.8243 45.4607Z" fill="#3F434F"/>
<path d="M83.2718 46.0004L83.2728 46.3354L83.2063 46.3738L83.2053 46.0388L83.2718 46.0004Z" fill="#3F434F"/>
<path d="M83.2386 45.799L83.3272 45.9686L83.2721 46.0004L83.1509 46.0698L83.2386 45.799Z" fill="#3F434F"/>
<path d="M84.6704 43.8644L84.6679 43.9103L82.6902 45.052V45.0087L84.6704 43.8644Z" fill="#A4A9B3"/>
<path d="M84.6679 44.0275V44.0759L82.6902 45.2176V45.1718L84.6679 44.0275Z" fill="#A4A9B3"/>
<path d="M84.668 44.1931V44.2415L82.6877 45.3833V45.3349L84.668 44.1931Z" fill="#A4A9B3"/>
<path d="M84.6704 43.6987V43.7446L82.6902 44.8889V44.8405L84.6704 43.6987Z" fill="#A4A9B3"/>
<path d="M84.6705 43.5331V43.579L82.6929 44.7207V44.6748L84.6705 43.5331Z" fill="#A4A9B3"/>
<path d="M88.2686 44.7791L88.2596 47.6164L85.6907 49.1093L85.6997 46.272L88.2686 44.7791Z" fill="#EFAC41"/>
<path d="M87.9703 45.321V45.7696L87.9678 45.8155V46.2538L85.9875 47.4057V47.2401L85.9901 47.1229V46.7457L85.9926 46.6259V46.473L87.9703 45.321Z" fill="#E4E8F4"/>
<path d="M85.6997 46.2719L85.6907 49.1093L83.105 47.6164L83.114 44.7791L85.6997 46.2719Z" fill="#F9BB4A"/>
<path d="M88.2692 44.7808L85.6996 46.2737L84.5701 45.6197L84.2431 45.4348L84.2365 45.4315L83.1135 44.7808L85.6831 43.288L86.8127 43.9386L86.816 43.9419L87.1396 44.1269L88.2692 44.7808Z" fill="#FED57A"/>
<path d="M87.1397 44.1269L84.5702 45.6197L84.2432 45.4348L84.2366 45.4315L86.8127 43.9386L86.816 43.9419L87.1397 44.1269Z" fill="#EFAC41"/>
<path d="M84.5702 45.6197L84.5671 46.6931L84.2366 46.5043L84.2396 45.4309L84.5702 45.6197Z" fill="#EFAC41"/>
<path d="M86.2716 47.8579L86.3606 48.0273L86.3055 48.0591L86.1838 48.1288L86.2716 47.8579Z" fill="#3F434F"/>
<path d="M86.3055 48.0591L86.3065 48.3941L86.24 48.4325L86.239 48.0975L86.3055 48.0591Z" fill="#3F434F"/>
<path d="M86.6359 48.2338L86.6361 48.3055L86.177 48.5706L86.1768 48.4989L86.6359 48.2338Z" fill="#3F434F"/>
<path d="M87.1239 47.3658L87.1245 47.6045C87.1247 47.6799 87.0812 47.7674 87.0234 47.8118L87.024 48.027C87.0645 48.0083 87.0951 48.01 87.0952 48.0325L86.9161 48.1359C86.9161 48.1134 86.9465 48.0764 86.9871 48.0483L86.9865 47.8331C86.96 47.8437 86.9372 47.8411 86.9194 47.8299C86.8984 47.8143 86.8846 47.785 86.8845 47.7431L86.8838 47.5044L87.1239 47.3658Z" fill="#3F434F"/>
<path d="M86.5716 47.9055L86.5726 48.2405L86.5061 48.2789L86.5051 47.9439L86.5716 47.9055Z" fill="#3F434F"/>
<path d="M86.5382 47.7041L86.6267 47.8737L86.5716 47.9055L86.4504 47.975L86.5382 47.7041Z" fill="#3F434F"/>
<path d="M87.9702 45.7695L87.9677 45.8154L85.99 46.9571V46.9138L87.9702 45.7695Z" fill="#A4A9B3"/>
<path d="M87.9677 45.9326V45.981L85.99 47.1228V47.0769L87.9677 45.9326Z" fill="#A4A9B3"/>
<path d="M87.9678 46.0983V46.1467L85.9875 47.2884V47.24L87.9678 46.0983Z" fill="#A4A9B3"/>
<path d="M87.9702 45.6039V45.6498L85.99 46.7941V46.7456L87.9702 45.6039Z" fill="#A4A9B3"/>
<path d="M87.9703 45.4382V45.4841L85.9927 46.6258V46.58L87.9703 45.4382Z" fill="#A4A9B3"/>
<path d="M85.2745 46.486L85.2655 49.3233L82.6965 50.8162L82.7055 47.9789L85.2745 46.486Z" fill="#EFAC41"/>
<path d="M84.9759 47.028V47.4765L84.9734 47.5224V47.9607L82.9932 49.1127V48.947L82.9957 48.8298V48.4526L82.9983 48.3328V48.1799L84.9759 47.028Z" fill="#E4E8F4"/>
<path d="M82.7077 47.9765L82.6864 50.8095L82.1113 50.4687L82.0901 47.6357L82.7077 47.9765Z" fill="#F9BB4A"/>
<path d="M85.2638 46.4855V46.5067L83.2189 47.6784L82.7077 47.9765L82.0901 47.6144V45.3353L82.4095 45.1648L82.6864 44.9945V45.0158H82.7077L82.7291 45.037H82.7504L82.8355 45.0797L82.8782 45.101L82.9847 45.1648L83.0272 45.1861L83.1125 45.2501H83.1338L83.645 45.5483L83.8154 45.6548L84.1348 45.8252L84.2413 45.8891L84.4544 46.0169L84.5609 46.0595L85.2638 46.4855Z" fill="#FED57A"/>
<path d="M84.1348 45.8252L83.7301 46.0595L83.6876 46.0808L83.2829 46.3151L83.1976 46.3789L83.1125 46.4216L83.006 46.4855L82.942 46.528L82.3882 46.8476L82.0901 47.018V46.6558L82.3882 46.4855L82.8994 46.1873L83.0485 46.102L83.1125 46.0595L83.1551 46.0382L83.3041 45.953L83.581 45.7826L83.8154 45.6548L84.1348 45.8252Z" fill="#EFAC41"/>
<path d="M83.2774 49.5648L83.3664 49.7342L83.3113 49.766L83.1897 49.8357L83.2774 49.5648Z" fill="#3F434F"/>
<path d="M83.3114 49.766L83.3123 50.101L83.2458 50.1394L83.2449 49.8044L83.3114 49.766Z" fill="#3F434F"/>
<path d="M83.6418 49.9407L83.642 50.0124L83.1828 50.2775L83.1826 50.2058L83.6418 49.9407Z" fill="#3F434F"/>
<path d="M84.1297 49.0728L84.1304 49.3114C84.1306 49.3868 84.0871 49.4744 84.0292 49.5187L84.0298 49.7339C84.0704 49.7152 84.101 49.7169 84.101 49.7394L83.922 49.8428C83.9219 49.8203 83.9524 49.7833 83.9929 49.7552L83.9923 49.5401C83.9659 49.5506 83.9431 49.548 83.9252 49.5368C83.9042 49.5212 83.8904 49.4919 83.8903 49.45L83.8896 49.2114L84.1297 49.0728Z" fill="#3F434F"/>
<path d="M83.5775 49.6124L83.5784 49.9474L83.5119 49.9858L83.511 49.6508L83.5775 49.6124Z" fill="#3F434F"/>
<path d="M83.544 49.411L83.6326 49.5806L83.5775 49.6124L83.4563 49.6819L83.544 49.411Z" fill="#3F434F"/>
<path d="M84.9758 47.4764L84.9733 47.5223L82.9956 48.6641V48.6207L84.9758 47.4764Z" fill="#A4A9B3"/>
<path d="M84.9733 47.6395V47.6879L82.9956 48.8297V48.7838L84.9733 47.6395Z" fill="#A4A9B3"/>
<path d="M84.9734 47.8052V47.8536L82.9932 48.9954V48.9469L84.9734 47.8052Z" fill="#A4A9B3"/>
<path d="M84.9758 47.3108V47.3567L82.9956 48.501V48.4525L84.9758 47.3108Z" fill="#A4A9B3"/>
<path d="M84.976 47.1451V47.191L82.9983 48.3328V48.2869L84.976 47.1451Z" fill="#A4A9B3"/>
<path d="M59.7252 52.2899V49.3507L59.1575 49.4842V52.0895L59.7252 52.2899Z" fill="#5D14A3"/>
<path d="M59.1575 52.0895L51.6091 56.4648V56.9657L59.7253 52.2899L59.1575 52.0895Z" fill="#8E31E6"/>
<path d="M59.1575 49.4843L55.6506 50.2858L51.6091 54.0266V56.4649L59.1575 52.0895V49.4843Z" fill="#F1DFFF"/>
<path d="M90.191 34.7161V31.7769L89.6233 31.9104V34.5157L90.191 34.7161Z" fill="#5D14A3"/>
<path d="M89.6233 34.5156L82.075 38.891V39.3919L90.1911 34.716L89.6233 34.5156Z" fill="#8E31E6"/>
<path d="M89.6233 31.9104L86.1164 32.712L82.075 36.4527V38.891L89.6233 34.5157V31.9104Z" fill="#F1DFFF"/>
<path d="M8.54971 73.7837L7.95223 73.4365L7.93237 63.3741L8.52986 63.7214L8.54971 73.7837Z" fill="#F34858"/>
<path d="M11.6505 60.0216C11.6505 60.8015 11.0995 61.751 10.4213 62.141L7.82722 63.6414C7.48811 63.8364 7.18293 63.8534 6.95402 63.7262L6.3606 63.3786C6.58102 63.5058 6.89468 63.4888 7.23379 63.2939L9.82788 61.7934C10.5061 61.4034 11.0486 60.4539 11.0486 59.674C11.0486 59.2841 10.913 59.0128 10.6926 58.8856L11.286 59.2332C11.5064 59.3604 11.6505 59.6316 11.6505 60.0216V60.0216Z" fill="#F34858"/>
<path d="M11.5911 58.7161C11.2859 58.5465 10.8705 58.572 10.4128 58.8348L7.81868 60.3268C6.9116 60.8524 6.17407 62.1325 6.17407 63.1837C6.17407 63.7008 6.36054 64.0653 6.65729 64.2349L6.06386 63.8873C5.76717 63.7178 5.58064 63.3533 5.58064 62.8362C5.57215 61.7849 6.31817 60.5049 7.22526 59.9792L9.81934 58.4872C10.2772 58.2244 10.6925 58.199 10.9892 58.3685L11.5911 58.7161Z" fill="#F34858"/>
<path d="M10.4136 58.8338C11.3283 58.3057 12.0668 58.7265 12.0698 59.7776C12.0727 60.8225 11.3391 62.0995 10.4243 62.6276L9.73156 63.0276L9.75142 73.0899L8.54984 73.7837L8.52999 63.7213L7.83176 64.1245C6.92243 64.6495 6.17851 64.2255 6.17555 63.1807C6.17257 62.1296 6.91168 60.8556 7.82101 60.3306L10.4136 58.8338ZM10.423 62.1425C11.0995 61.7519 11.6498 60.7988 11.6476 60.0213C11.6454 59.2439 11.0915 58.9221 10.4149 59.3127L7.82236 60.8095C7.14579 61.2001 6.5955 62.1595 6.59771 62.9369C6.59991 63.7143 7.15381 64.03 7.83039 63.6394L10.423 62.1425Z" fill="#F9607F"/>
<path d="M83.2934 72.2048L83.2917 72.7818L55.5146 88.9241L55.5163 88.3471L83.2934 72.2048Z" fill="#525566"/>
<path d="M55.5162 88.3471L55.5145 88.9241L53.7671 87.9153L53.7687 87.3383L55.5162 88.3471Z" fill="#474B59"/>
<path d="M83.2933 72.2048L55.5162 88.3471L53.7688 87.3382L81.5459 71.1959L83.2933 72.2048Z" fill="#5B5E71"/>
<path d="M89.2585 75.6489L89.2568 76.2259L61.4797 92.3682L61.4814 91.7912L89.2585 75.6489Z" fill="#525566"/>
<path d="M61.4815 91.7912L61.4799 92.3682L59.7324 91.3593L59.7341 90.7823L61.4815 91.7912Z" fill="#474B59"/>
<path d="M89.2587 75.6489L61.4816 91.7912L59.7341 90.7823L87.5112 74.64L89.2587 75.6489Z" fill="#5B5E71"/>
<path d="M95.2389 79.1017L95.2373 79.6787L67.4602 95.821L67.4618 95.244L95.2389 79.1017Z" fill="#525566"/>
<path d="M67.462 95.244L67.4603 95.821L65.7129 94.8121L65.7145 94.2351L67.462 95.244Z" fill="#474B59"/>
<path d="M95.2391 79.1017L67.462 95.2439L65.7146 94.2351L93.4917 78.0928L95.2391 79.1017Z" fill="#5B5E71"/>
<path d="M75.9229 73.1493L75.9247 73.7844L91.2947 82.7165L91.2929 82.0814L75.9229 73.1493Z" fill="#37617B"/>
<path d="M91.293 82.0815L91.2948 82.7166L93.2182 81.6061L93.2164 80.9709L91.293 82.0815Z" fill="#416E84"/>
<path d="M75.9229 73.1493L91.2929 82.0814L93.2163 80.9709L77.8463 72.0388L75.9229 73.1493Z" fill="#4C7891"/>
<path d="M69.3567 76.9403L69.3585 77.5754L84.7285 86.5075L84.7267 85.8724L69.3567 76.9403Z" fill="#37617B"/>
<path d="M84.7268 85.8725L84.7286 86.5076L86.6521 85.3971L86.6503 84.762L84.7268 85.8725Z" fill="#416E84"/>
<path d="M69.3567 76.9403L84.7267 85.8724L86.6502 84.7619L71.2802 75.8298L69.3567 76.9403Z" fill="#4C7891"/>
<path d="M62.7737 80.7408L62.7755 81.376L78.1455 90.308L78.1437 89.6729L62.7737 80.7408Z" fill="#37617B"/>
<path d="M78.1438 89.673L78.1456 90.3081L80.0691 89.1976L80.0673 88.5625L78.1438 89.673Z" fill="#416E84"/>
<path d="M62.7737 80.7409L78.1437 89.673L80.0672 88.5625L64.6971 79.6304L62.7737 80.7409Z" fill="#4C7891"/>
<path d="M56.1909 84.5415L56.1927 85.1766L71.5627 94.1087L71.5609 93.4736L56.1909 84.5415Z" fill="#37617B"/>
<path d="M71.561 93.4737L71.5628 94.1088L73.4863 92.9983L73.4845 92.3632L71.561 93.4737Z" fill="#416E84"/>
<path d="M56.1909 84.5415L71.5609 93.4736L73.4844 92.3631L58.1144 83.431L56.1909 84.5415Z" fill="#4C7891"/>
<path d="M75.1299 69.4742L75.1525 76.6282L86.8797 83.4424L86.857 76.2885L75.1299 69.4742Z" fill="#EFAC41"/>
<path d="M83.7178 75.5553L83.7252 77.9078L85.8552 79.1457L85.8478 76.7931L83.7178 75.5553Z" fill="#E4E8F4"/>
<path d="M86.8572 76.2885L86.8798 83.4424L93.3994 79.6783L93.3768 72.5244L86.8572 76.2885Z" fill="#F9BB4A"/>
<path d="M75.1284 69.4788L86.8571 76.2929L89.7051 74.644L90.5296 74.1777L90.5462 74.1694L93.3776 72.5289L81.6488 65.7147L78.8008 67.3553L78.7925 67.3636L77.9764 67.8299L75.1284 69.4788Z" fill="#FED57A"/>
<path d="M77.9763 67.8299L89.705 74.644L90.5295 74.1776L90.5461 74.1694L78.8007 67.3552L78.7924 67.3636L77.9763 67.8299Z" fill="#EFAC41"/>
<path d="M89.7051 74.644L89.7128 77.3505L90.5462 76.8746L90.5385 74.1681L89.7051 74.644Z" fill="#EFAC41"/>
<path d="M85.4148 80.2874L85.1904 80.7143L85.3294 80.7946L85.6361 80.9703L85.4148 80.2874Z" fill="#3F434F"/>
<path d="M85.3293 80.7946L85.3269 81.6392L85.4946 81.736L85.497 80.8914L85.3293 80.7946Z" fill="#3F434F"/>
<path d="M84.4964 81.235L84.4958 81.4158L85.6536 82.0842L85.6541 81.9034L84.4964 81.235Z" fill="#3F434F"/>
<path d="M83.2659 79.0466L83.2642 79.6484C83.2636 79.8385 83.3734 80.0592 83.5192 80.1711L83.5177 80.7136C83.4154 80.6664 83.3383 80.6708 83.3382 80.7276L83.7896 80.9882C83.7897 80.9314 83.7129 80.8382 83.6107 80.7673L83.6123 80.2248C83.6789 80.2514 83.7364 80.245 83.7814 80.2167C83.8344 80.1773 83.8691 80.1035 83.8694 79.9979L83.8712 79.3961L83.2659 79.0466Z" fill="#3F434F"/>
<path d="M84.6586 80.4072L84.6562 81.2519L84.8239 81.3487L84.8263 80.504L84.6586 80.4072Z" fill="#3F434F"/>
<path d="M84.7428 79.8994L84.5195 80.3271L84.6585 80.4073L84.964 80.5824L84.7428 79.8994Z" fill="#3F434F"/>
<path d="M66.2351 74.6096L66.2577 81.7635L77.9849 88.5778L77.9622 81.4239L66.2351 74.6096Z" fill="#EFAC41"/>
<path d="M74.823 80.6907L74.8304 83.0432L76.9604 84.281L76.953 81.9285L74.823 80.6907Z" fill="#E4E8F4"/>
<path d="M77.9624 81.4239L77.985 88.5778L84.5046 84.8137L84.482 77.6598L77.9624 81.4239Z" fill="#F9BB4A"/>
<path d="M66.2336 74.6141L77.9623 81.4283L80.8103 79.7794L81.6348 79.3131L81.6514 79.3048L84.4828 77.6642L72.754 70.8501L69.9061 72.4906L69.8977 72.499L69.0816 72.9653L66.2336 74.6141Z" fill="#FED57A"/>
<path d="M69.0815 72.9653L80.8102 79.7794L81.6347 79.313L81.6513 79.3047L69.906 72.4906L69.8976 72.4989L69.0815 72.9653Z" fill="#EFAC41"/>
<path d="M80.8103 79.7794L80.818 82.4859L81.6514 82.0099L81.6437 79.3035L80.8103 79.7794Z" fill="#EFAC41"/>
<path d="M76.52 85.4227L76.2957 85.8497L76.4346 85.9299L76.7413 86.1057L76.52 85.4227Z" fill="#3F434F"/>
<path d="M76.4345 85.9299L76.4321 86.7746L76.5998 86.8714L76.6022 86.0267L76.4345 85.9299Z" fill="#3F434F"/>
<path d="M75.6016 86.3704L75.6011 86.5512L76.7588 87.2196L76.7593 87.0388L75.6016 86.3704Z" fill="#3F434F"/>
<path d="M74.3711 84.182L74.3694 84.7838C74.3688 84.9739 74.4787 85.1946 74.6244 85.3065L74.6229 85.8489C74.5207 85.8018 74.4436 85.8062 74.4434 85.8629L74.8948 86.1235C74.8949 86.0668 74.8181 85.9735 74.7159 85.9026L74.7175 85.3602C74.7841 85.3868 74.8417 85.3804 74.8866 85.3521C74.9397 85.3127 74.9744 85.2389 74.9747 85.1333L74.9764 84.5315L74.3711 84.182Z" fill="#3F434F"/>
<path d="M75.7639 85.5426L75.7615 86.3873L75.9292 86.4841L75.9316 85.6394L75.7639 85.5426Z" fill="#3F434F"/>
<path d="M75.8482 85.0348L75.625 85.4624L75.764 85.5427L76.0695 85.7177L75.8482 85.0348Z" fill="#3F434F"/>
<path d="M57.3406 79.7449L57.3632 86.8988L69.0904 93.713L69.0677 86.5591L57.3406 79.7449Z" fill="#EFAC41"/>
<path d="M65.9285 85.8259L65.9359 88.1785L68.0659 89.4163L68.0585 87.0638L65.9285 85.8259Z" fill="#E4E8F4"/>
<path d="M69.0679 86.5591L69.0905 93.7131L75.6101 89.949L75.5875 82.795L69.0679 86.5591Z" fill="#F9BB4A"/>
<path d="M57.3391 79.7494L69.0678 86.5635L71.9158 84.9147L72.7403 84.4483L72.7569 84.44L75.5883 82.7995L63.8595 75.9854L61.0115 77.6259L61.0032 77.6342L60.1871 78.1006L57.3391 79.7494Z" fill="#FED57A"/>
<path d="M60.187 78.1005L71.9157 84.9146L72.7402 84.4483L72.7568 84.44L61.0114 77.6259L61.0031 77.6342L60.187 78.1005Z" fill="#EFAC41"/>
<path d="M71.9158 84.9147L71.9234 87.6212L72.7569 87.1452L72.7492 84.4387L71.9158 84.9147Z" fill="#EFAC41"/>
<path d="M67.6255 90.558L67.4011 90.985L67.5401 91.0652L67.8468 91.2409L67.6255 90.558Z" fill="#3F434F"/>
<path d="M67.54 91.0652L67.5376 91.9098L67.7053 92.0067L67.7077 91.162L67.54 91.0652Z" fill="#3F434F"/>
<path d="M66.7071 91.5056L66.7065 91.6864L67.8643 92.3548L67.8648 92.174L66.7071 91.5056Z" fill="#3F434F"/>
<path d="M65.4766 89.3173L65.4749 89.9191C65.4743 90.1091 65.5841 90.3298 65.7299 90.4418L65.7284 90.9842C65.6261 90.9371 65.549 90.9415 65.5489 90.9982L66.0003 91.2588C66.0004 91.2021 65.9236 91.1088 65.8214 91.0379L65.823 90.4955C65.8896 90.5221 65.9471 90.5156 65.9921 90.4874C66.0451 90.4479 66.0798 90.3741 66.0801 90.2685L66.0819 89.6667L65.4766 89.3173Z" fill="#3F434F"/>
<path d="M66.8693 90.6779L66.8669 91.5225L67.0346 91.6193L67.037 90.7747L66.8693 90.6779Z" fill="#3F434F"/>
<path d="M66.9537 90.17L66.7305 90.5977L66.8694 90.6779L67.175 90.853L66.9537 90.17Z" fill="#3F434F"/>
<path d="M69.0833 64.488L69.1059 71.642L80.833 78.4562L80.8104 71.3023L69.0833 64.488Z" fill="#EFAC41"/>
<path d="M77.6711 70.5691L77.6786 72.9216L79.8086 74.1594L79.8011 71.8069L77.6711 70.5691Z" fill="#E4E8F4"/>
<path d="M80.8105 71.3023L80.8332 78.4562L87.3528 74.6921L87.3301 67.5382L80.8105 71.3023Z" fill="#F9BB4A"/>
<path d="M69.0818 64.4926L80.8105 71.3067L83.6585 69.6578L84.4829 69.1915L84.4996 69.1832L87.3309 67.5427L75.6022 60.7285L72.7542 62.3691L72.7459 62.3774L71.9298 62.8437L69.0818 64.4926Z" fill="#FED57A"/>
<path d="M71.9297 62.8437L83.6584 69.6578L84.4829 69.1914L84.4995 69.1832L72.7541 62.369L72.7458 62.3774L71.9297 62.8437Z" fill="#EFAC41"/>
<path d="M83.6584 69.6578L83.6661 72.3643L84.4995 71.8884L84.4919 69.1819L83.6584 69.6578Z" fill="#EFAC41"/>
<path d="M79.3682 75.3011L79.1438 75.7281L79.2828 75.8084L79.5894 75.9841L79.3682 75.3011Z" fill="#3F434F"/>
<path d="M79.2827 75.8083L79.2803 76.653L79.448 76.7498L79.4504 75.9052L79.2827 75.8083Z" fill="#3F434F"/>
<path d="M78.4497 76.2488L78.4492 76.4296L79.607 77.098L79.6075 76.9172L78.4497 76.2488Z" fill="#3F434F"/>
<path d="M77.2192 74.0604L77.2175 74.6622C77.217 74.8523 77.3268 75.073 77.4726 75.1849L77.4711 75.7274C77.3688 75.6802 77.2917 75.6846 77.2915 75.7414L77.7429 76.002C77.7431 75.9452 77.6663 75.852 77.5641 75.7811L77.5656 75.2386C77.6323 75.2652 77.6898 75.2588 77.7348 75.2305C77.7878 75.1911 77.8225 75.1173 77.8228 75.0117L77.8245 74.4099L77.2192 74.0604Z" fill="#3F434F"/>
<path d="M78.612 75.421L78.6096 76.2657L78.7773 76.3625L78.7797 75.5178L78.612 75.421Z" fill="#3F434F"/>
<path d="M78.6959 74.9132L78.4727 75.3408L78.6116 75.4211L78.9171 75.5962L78.6959 74.9132Z" fill="#3F434F"/>
<path d="M60.1885 69.6233L60.2111 76.7772L71.9383 83.5915L71.9156 76.4375L60.1885 69.6233Z" fill="#EFAC41"/>
<path d="M68.7764 75.7043L68.7838 78.0569L70.9138 79.2947L70.9064 76.9422L68.7764 75.7043Z" fill="#E4E8F4"/>
<path d="M71.9158 76.4375L71.9384 83.5915L78.458 79.8274L78.4354 72.6735L71.9158 76.4375Z" fill="#F9BB4A"/>
<path d="M60.187 69.6278L71.9157 76.442L74.7637 74.7931L75.5882 74.3267L75.6048 74.3184L78.4362 72.6779L66.7074 65.8638L63.8594 67.5043L63.8511 67.5126L63.035 67.979L60.187 69.6278Z" fill="#FED57A"/>
<path d="M63.0349 67.9789L74.7636 74.793L75.5881 74.3267L75.6047 74.3184L63.8593 67.5043L63.851 67.5126L63.0349 67.9789Z" fill="#EFAC41"/>
<path d="M74.7637 74.7931L74.7713 77.4996L75.6048 77.0236L75.5971 74.3171L74.7637 74.7931Z" fill="#EFAC41"/>
<path d="M70.4734 80.4364L70.249 80.8634L70.388 80.9436L70.6947 81.1193L70.4734 80.4364Z" fill="#3F434F"/>
<path d="M70.3879 80.9436L70.3855 81.7883L70.5532 81.8851L70.5556 81.0404L70.3879 80.9436Z" fill="#3F434F"/>
<path d="M69.555 81.384L69.5544 81.5648L70.7122 82.2333L70.7127 82.0525L69.555 81.384Z" fill="#3F434F"/>
<path d="M68.3245 79.1957L68.3228 79.7975C68.3222 79.9875 68.432 80.2083 68.5778 80.3202L68.5763 80.8626C68.474 80.8155 68.3969 80.8199 68.3968 80.8766L68.8482 81.1372C68.8483 81.0805 68.7715 80.9872 68.6693 80.9163L68.6709 80.3739C68.7375 80.4005 68.795 80.394 68.84 80.3658C68.893 80.3263 68.9277 80.2525 68.928 80.147L68.9297 79.5451L68.3245 79.1957Z" fill="#3F434F"/>
<path d="M69.7172 80.5563L69.7148 81.4009L69.8825 81.4977L69.8849 80.6531L69.7172 80.5563Z" fill="#3F434F"/>
<path d="M69.8016 80.0485L69.5784 80.4761L69.7173 80.5563L70.0229 80.7314L69.8016 80.0485Z" fill="#3F434F"/>
<path d="M82.1836 52.583L82.1916 55.3241L84.6714 56.7648L84.6634 54.0238L83.5961 53.4017L83.275 53.2171L82.1836 52.583Z" fill="#EFAC41"/>
<path d="M84.6602 54.0254L84.6703 56.763L87.1652 55.3212L87.157 52.5861V52.582H87.1529L86.0706 53.2094L85.8245 53.3529L85.7507 53.3939L84.6602 54.0254Z" fill="#F9BB4A"/>
<path d="M82.1821 52.5856L84.6617 54.0264L85.7517 53.3952L86.0672 53.2167L86.0736 53.2135L87.1572 52.5856L84.6776 51.1448L82.1821 52.5856Z" fill="#FED57A"/>
<path d="M83.2712 51.9544L85.7508 53.3952L86.0663 53.2167L86.0727 53.2135L83.5868 51.7727L83.5836 51.7759L83.2712 51.9544Z" fill="#E4E8F4"/>
<path d="M86.0748 53.866L85.7538 54.0546L85.7498 53.4018V53.3937L85.822 53.3536L86.0708 53.2131V53.2172L86.0748 53.866Z" fill="#D4DAE8"/>
<path d="M85.013 55.6001L85.0942 55.7547L85.0439 55.7838L84.9329 55.8474L85.013 55.6001Z" fill="#3F434F"/>
<path d="M85.0439 55.7838L85.0447 56.0897L84.984 56.1248L84.9832 55.8189L85.0439 55.7838Z" fill="#3F434F"/>
<path d="M85.3455 55.9434L85.3457 56.0088L84.9265 56.2509L84.9263 56.1854L85.3455 55.9434Z" fill="#3F434F"/>
<path d="M86.1115 54.984L86.1121 55.202C86.1123 55.2708 86.0726 55.3507 86.0198 55.3913L86.0203 55.5877C86.0574 55.5706 86.0853 55.5722 86.0853 55.5928L85.9219 55.6872C85.9218 55.6666 85.9496 55.6328 85.9866 55.6072L85.9861 55.4107C85.9619 55.4203 85.9411 55.418 85.9248 55.4078C85.9056 55.3935 85.8931 55.3668 85.893 55.3285L85.8923 55.1106L86.1115 54.984Z" fill="#3F434F"/>
<path d="M85.2868 55.6436L85.2877 55.9495L85.2269 55.9845L85.2261 55.6786L85.2868 55.6436Z" fill="#3F434F"/>
<path d="M85.2561 55.4596L85.337 55.6145L85.2867 55.6435L85.176 55.7069L85.2561 55.4596Z" fill="#3F434F"/>
<path d="M85.666 55.8968C85.6547 55.8905 85.648 55.8776 85.648 55.8613L85.6462 55.2068C85.6459 55.1782 85.6662 55.1432 85.6913 55.1285L86.2599 54.8002C86.2736 54.7924 86.2875 54.7914 86.2987 54.7977C86.3099 54.8041 86.3163 54.8173 86.3163 54.8337L86.3183 55.4882C86.3183 55.5169 86.2985 55.5519 86.2742 55.566L85.7056 55.8943C85.6978 55.8988 85.6897 55.9011 85.6823 55.9011C85.6764 55.9011 85.6709 55.8998 85.666 55.8968V55.8968ZM86.272 54.821L85.7035 55.1492C85.6858 55.1594 85.6701 55.1869 85.6701 55.2068L85.6719 55.8613C85.6721 55.8686 85.6743 55.8739 85.6778 55.876C85.6815 55.8776 85.687 55.8772 85.6935 55.8735L86.2621 55.5453C86.2793 55.5353 86.2944 55.5086 86.2944 55.4882L86.2924 54.8337C86.2924 54.8263 86.2903 54.8206 86.2867 54.8185C86.2856 54.8179 86.2842 54.8175 86.2826 54.8175C86.2797 54.8175 86.276 54.8186 86.272 54.821V54.821Z" fill="#3F434F"/>
<path d="M84.8193 56.3853C84.8081 56.3789 84.8018 56.3659 84.8018 56.3501L84.8001 55.6956C84.7997 55.6667 84.82 55.6315 84.8451 55.6172L85.4137 55.2887C85.4274 55.2807 85.4411 55.2797 85.4525 55.2864C85.4639 55.2929 85.4701 55.306 85.4701 55.3223L85.4721 55.977C85.4721 56.0061 85.4527 56.0404 85.4278 56.0547L84.8592 56.383C84.8516 56.3875 84.8436 56.3896 84.8361 56.3896C84.83 56.3896 84.8244 56.3883 84.8193 56.3853V56.3853ZM85.4259 55.3095L84.8573 55.6379C84.8396 55.6481 84.824 55.6754 84.824 55.6956L84.8257 56.3501C84.8257 56.3571 84.8279 56.3624 84.8314 56.3646C84.8351 56.3663 84.841 56.3657 84.8473 56.3622L85.4157 56.034C85.4329 56.024 85.4482 55.9973 85.4482 55.977L85.4462 55.3223C85.4462 55.3148 85.4441 55.3093 85.4406 55.3072C85.4394 55.3066 85.4378 55.3062 85.4362 55.3062C85.4333 55.3062 85.4298 55.3074 85.4259 55.3095V55.3095Z" fill="#3F434F"/>
<path d="M88.7124 52.3251L88.7204 55.0661L91.2002 56.5069L91.1922 53.7658L90.1249 53.1438L89.8039 52.9592L88.7124 52.3251Z" fill="#EFAC41"/>
<path d="M91.189 53.7675L91.1991 56.5051L93.6941 55.0633L93.6858 52.3282V52.3241H93.6817L92.5994 52.9515L92.3534 53.095L92.2796 53.136L91.189 53.7675Z" fill="#F9BB4A"/>
<path d="M88.7109 52.3276L91.1905 53.7684L92.2805 53.1373L92.596 52.9588L92.6024 52.9556L93.686 52.3276L91.2064 50.8868L88.7109 52.3276Z" fill="#FED57A"/>
<path d="M89.8 51.6965L92.2796 53.1372L92.5951 52.9587L92.6015 52.9556L90.1156 51.5148L90.1124 51.518L89.8 51.6965Z" fill="#E4E8F4"/>
<path d="M92.6036 53.6081L92.2826 53.7967L92.2786 53.1438V53.1358L92.3508 53.0957L92.5996 52.9552V52.9592L92.6036 53.6081Z" fill="#D4DAE8"/>
<path d="M91.5418 55.3422L91.623 55.4968L91.5727 55.5259L91.4617 55.5895L91.5418 55.3422Z" fill="#3F434F"/>
<path d="M91.5727 55.5259L91.5735 55.8318L91.5128 55.8668L91.512 55.5609L91.5727 55.5259Z" fill="#3F434F"/>
<path d="M91.8743 55.6854L91.8745 55.7509L91.4553 55.993L91.4551 55.9275L91.8743 55.6854Z" fill="#3F434F"/>
<path d="M92.6403 54.7261L92.6409 54.944C92.6411 55.0129 92.6014 55.0928 92.5486 55.1333L92.5491 55.3298C92.5862 55.3127 92.6141 55.3143 92.6141 55.3349L92.4507 55.4292C92.4506 55.4087 92.4784 55.3749 92.5154 55.3492L92.5149 55.1528C92.4908 55.1624 92.4699 55.1601 92.4536 55.1498C92.4344 55.1356 92.4219 55.1088 92.4218 55.0706L92.4211 54.8526L92.6403 54.7261Z" fill="#3F434F"/>
<path d="M91.8156 55.3856L91.8165 55.6915L91.7558 55.7266L91.7549 55.4207L91.8156 55.3856Z" fill="#3F434F"/>
<path d="M91.7849 55.2017L91.8658 55.3565L91.8155 55.3856L91.7048 55.449L91.7849 55.2017Z" fill="#3F434F"/>
<path d="M92.1948 55.6389C92.1835 55.6326 92.1768 55.6197 92.1768 55.6034L92.1751 54.9489C92.1747 54.9203 92.195 54.8852 92.2201 54.8705L92.7887 54.5423C92.8024 54.5345 92.8163 54.5335 92.8275 54.5397C92.8387 54.5462 92.8451 54.5593 92.8451 54.5758L92.8471 55.2303C92.8471 55.2589 92.8273 55.294 92.803 55.3081L92.2344 55.6363C92.2266 55.6408 92.2186 55.6432 92.2111 55.6432C92.2052 55.6432 92.1997 55.6418 92.1948 55.6389V55.6389ZM92.8009 54.5631L92.2323 54.8913C92.2146 54.9015 92.199 54.9289 92.199 54.9489L92.2007 55.6034C92.2009 55.6107 92.2031 55.616 92.2066 55.6181C92.2103 55.6197 92.2158 55.6193 92.2223 55.6156L92.7909 55.2873C92.8081 55.2773 92.8232 55.2507 92.8232 55.2303L92.8212 54.5758C92.8212 54.5684 92.8191 54.5627 92.8155 54.5605C92.8144 54.5599 92.813 54.5595 92.8114 54.5595C92.8085 54.5595 92.8048 54.5607 92.8009 54.5631V54.5631Z" fill="#3F434F"/>
<path d="M91.3481 56.1274C91.3369 56.1209 91.3306 56.108 91.3306 56.0921L91.3289 55.4376C91.3285 55.4088 91.3489 55.3735 91.3739 55.3592L91.9425 55.0308C91.9562 55.0228 91.9699 55.0218 91.9813 55.0285C91.9927 55.0349 91.9989 55.048 91.9989 55.0643L92.0009 55.719C92.0009 55.7482 91.9815 55.7825 91.9566 55.7968L91.388 56.125C91.3804 56.1296 91.3724 56.1317 91.3649 56.1317C91.3588 56.1317 91.3532 56.1303 91.3481 56.1274V56.1274ZM91.9547 55.0516L91.3861 55.38C91.3684 55.3902 91.3528 55.4174 91.3528 55.4376L91.3545 56.0921C91.3545 56.0992 91.3567 56.1045 91.3602 56.1066C91.3639 56.1084 91.3698 56.1078 91.3761 56.1043L91.9445 55.776C91.9617 55.766 91.977 55.7394 91.977 55.719L91.975 55.0643C91.975 55.0569 91.9729 55.0514 91.9694 55.0492C91.9682 55.0486 91.9666 55.0482 91.965 55.0482C91.9621 55.0482 91.9586 55.0494 91.9547 55.0516V55.0516Z" fill="#3F434F"/>
<path d="M85.7681 54.0278L85.7761 56.7689L88.2559 58.2096L88.2479 55.4686L87.1805 54.8465L86.8595 54.6619L85.7681 54.0278Z" fill="#EFAC41"/>
<path d="M88.2446 55.4703L88.2547 58.2079L90.7497 56.7661L90.7415 54.0309V54.0269H90.7374L89.655 54.6542L89.409 54.7978L89.3352 54.8388L88.2446 55.4703Z" fill="#F9BB4A"/>
<path d="M85.7666 54.0304L88.2462 55.4712L89.3361 54.84L89.6517 54.6615L89.658 54.6584L90.7417 54.0304L88.2621 52.5896L85.7666 54.0304Z" fill="#FED57A"/>
<path d="M86.8557 53.3992L89.3353 54.84L89.6508 54.6615L89.6572 54.6583L87.1712 53.2175L87.168 53.2207L86.8557 53.3992Z" fill="#E4E8F4"/>
<path d="M89.6593 55.3108L89.3382 55.4994L89.3342 54.8466V54.8386L89.4065 54.7984L89.6552 54.658V54.662L89.6593 55.3108Z" fill="#D4DAE8"/>
<path d="M88.5974 57.0449L88.6787 57.1996L88.6284 57.2286L88.5173 57.2923L88.5974 57.0449Z" fill="#3F434F"/>
<path d="M88.6283 57.2286L88.6292 57.5345L88.5685 57.5696L88.5676 57.2637L88.6283 57.2286Z" fill="#3F434F"/>
<path d="M88.93 57.3882L88.9302 57.4537L88.5109 57.6957L88.5107 57.6303L88.93 57.3882Z" fill="#3F434F"/>
<path d="M89.696 56.4288L89.6966 56.6468C89.6968 56.7156 89.657 56.7956 89.6042 56.8361L89.6048 57.0325C89.6418 57.0155 89.6697 57.0171 89.6698 57.0376L89.5064 57.132C89.5063 57.1114 89.5341 57.0777 89.5711 57.052L89.5706 56.8555C89.5464 56.8652 89.5256 56.8628 89.5093 56.8526C89.4901 56.8383 89.4775 56.8116 89.4774 56.7734L89.4768 56.5554L89.696 56.4288Z" fill="#3F434F"/>
<path d="M88.8713 57.0884L88.8721 57.3943L88.8114 57.4293L88.8105 57.1234L88.8713 57.0884Z" fill="#3F434F"/>
<path d="M88.8406 56.9044L88.9214 57.0593L88.8711 57.0884L88.7605 57.1518L88.8406 56.9044Z" fill="#3F434F"/>
<path d="M89.2505 57.3416C89.2391 57.3354 89.2325 57.3224 89.2325 57.3062L89.2307 56.6517C89.2303 56.6231 89.2507 56.588 89.2758 56.5733L89.8444 56.245C89.8581 56.2372 89.872 56.2362 89.8832 56.2425C89.8943 56.249 89.9008 56.2621 89.9008 56.2786L89.9028 56.9331C89.9028 56.9617 89.883 56.9967 89.8587 57.0109L89.2901 57.3391C89.2822 57.3436 89.2742 57.3459 89.2668 57.3459C89.2609 57.3459 89.2554 57.3446 89.2505 57.3416ZM89.8565 56.2658L89.2879 56.5941C89.2703 56.6042 89.2546 56.6317 89.2546 56.6517L89.2564 57.3062C89.2566 57.3134 89.2587 57.3187 89.2623 57.3209C89.266 57.3224 89.2715 57.322 89.2779 57.3183L89.8465 56.9901C89.8638 56.9801 89.8789 56.9534 89.8789 56.9331L89.8769 56.2786C89.8769 56.2711 89.8747 56.2654 89.8712 56.2633C89.87 56.2627 89.8687 56.2623 89.8671 56.2623C89.8642 56.2623 89.8604 56.2635 89.8565 56.2658V56.2658Z" fill="#3F434F"/>
<path d="M88.4037 57.8301C88.3926 57.8237 88.3863 57.8108 88.3863 57.7949L88.3845 57.1404C88.3841 57.1116 88.4045 57.0763 88.4296 57.062L88.9982 56.7336C89.0119 56.7255 89.0256 56.7246 89.037 56.7312C89.0483 56.7377 89.0546 56.7508 89.0546 56.7671L89.0566 57.4218C89.0566 57.451 89.0372 57.4853 89.0123 57.4996L88.4437 57.8278C88.4361 57.8323 88.428 57.8345 88.4206 57.8345C88.4145 57.8345 88.4088 57.8331 88.4037 57.8301V57.8301ZM89.0103 56.7543L88.4417 57.0828C88.4241 57.093 88.4084 57.1202 88.4084 57.1404L88.4102 57.7949C88.4102 57.8019 88.4124 57.8072 88.4159 57.8094C88.4196 57.8111 88.4255 57.8106 88.4317 57.807L89.0001 57.4788C89.0174 57.4688 89.0327 57.4422 89.0327 57.4218L89.0307 56.7671C89.0307 56.7596 89.0285 56.7541 89.025 56.752C89.0238 56.7514 89.0223 56.751 89.0207 56.751C89.0178 56.751 89.0142 56.7522 89.0103 56.7543V56.7543Z" fill="#3F434F"/>
<path d="M43.1357 54.2198L33.5188 48.631L33.5054 46.4218L43.1223 52.0105L43.1357 54.2198Z" fill="#7B6976"/>
<path d="M47.2272 49.6325L43.1247 52.012L33.5042 46.412L37.6272 44.053L47.2272 49.6325Z" fill="#A88AA0"/>
<path d="M47.2362 49.6353L47.2409 50.4588L43.1357 54.2197L43.1223 52.0104L47.2362 49.6353Z" fill="#9C7E94"/>
<path d="M19.906 40.7186L10.289 35.1298L10.2756 32.9205L19.8926 38.5093L19.906 40.7186Z" fill="#7B6976"/>
<path d="M23.9975 36.1313L19.8949 38.5107L10.2744 32.9108L14.3975 30.5518L23.9975 36.1313Z" fill="#A88AA0"/>
<path d="M24.0065 36.134L24.0112 36.9576L19.906 40.7185L19.8926 38.5092L24.0065 36.134Z" fill="#9C7E94"/>
<path d="M71.6548 35.8248L62.0378 30.236L62.0244 28.0267L71.6414 33.6155L71.6548 35.8248Z" fill="#7B6976"/>
<path d="M75.7463 31.2375L71.6437 33.6169L62.0232 28.017L66.1463 25.658L75.7463 31.2375Z" fill="#A88AA0"/>
<path d="M75.7553 31.2402L75.76 32.0638L71.6548 35.8247L71.6414 33.6154L75.7553 31.2402Z" fill="#9C7E94"/>
<path d="M48.425 22.3234L38.8081 16.7347L38.7947 14.5254L48.4116 20.1141L48.425 22.3234Z" fill="#7B6976"/>
<path d="M52.5165 17.7363L48.414 20.1157L38.7935 14.5158L42.9166 12.1567L52.5165 17.7363Z" fill="#A88AA0"/>
<path d="M52.5255 17.739L52.5303 18.5626L48.425 22.3235L48.4116 20.1142L52.5255 17.739Z" fill="#9C7E94"/>
</svg>
