<svg _ngcontent-vth-c35="" width="92" height="92" viewBox="0 0 46 46" fill="none" xmlns="http://www.w3.org/2000/svg" class="digital-icons"><path _ngcontent-vth-c35="" d="M0.219238 22.5777C0.219238 10.1084 10.3276 0 22.7969 0C35.2663 0 45.3746 10.1084 45.3746 22.5777C45.3746 35.047 35.2663 45.1554 22.7969 45.1554H0.219238V22.5777Z" fill="url(#paint0_linear_28_102)"></path><defs _ngcontent-vth-c35=""><linearGradient _ngcontent-vth-c35="" id="paint0_linear_28_102" x1="22.7969" y1="0" x2="22.7969" y2="45.1554" gradientUnits="userSpaceOnUse"><stop _ngcontent-vth-c35="" stop-color="#742BFA"></stop><stop _ngcontent-vth-c35="" offset="1" stop-color="#9A47E9"></stop></linearGradient></defs><svg _ngcontent-vth-c35="" x="30%" y="30%" width="19" height="19" viewBox="0 0 19 19" fill="none" xmlns="http://www.w3.org/2000/svg"><path _ngcontent-vth-c35="" d="M10.245 0.0985399C10.8031 0.248679 11.2856 0.623454 11.8724 1.07731L12.2128 1.34091C12.4913 1.55523 12.5578 1.60452 12.6243 1.64005C12.6956 1.67886 12.7709 1.70998 12.8489 1.73288C12.9211 1.75466 13.0025 1.76726 13.3509 1.81311L13.7784 1.86697C14.5142 1.96095 15.1193 2.03774 15.6202 2.32541C16.0591 2.57755 16.4224 2.94087 16.6746 3.37983C16.9623 3.87952 17.039 4.48581 17.133 5.22161L17.188 5.6491C17.2327 5.99752 17.2453 6.07889 17.2671 6.1511C17.29 6.22903 17.3206 6.30391 17.3588 6.37573C17.3955 6.44221 17.4448 6.50868 17.6591 6.78718L17.9227 7.12757C18.3765 7.71438 18.7513 8.19689 18.9015 8.75504C19.0328 9.24299 19.0328 9.75701 18.9015 10.245C18.7513 10.8031 18.3765 11.2856 17.9227 11.8724L17.6591 12.2128C17.4448 12.4913 17.3955 12.5578 17.36 12.6243C17.321 12.6961 17.29 12.771 17.2671 12.8489C17.2453 12.9211 17.2327 13.0025 17.1869 13.3509L17.133 13.7784C17.039 14.5142 16.9623 15.1193 16.6746 15.6202C16.4223 16.0585 16.0585 16.4223 15.6202 16.6746C15.1205 16.9623 14.5142 17.039 13.7784 17.133L13.3509 17.188C13.0025 17.2327 12.9211 17.2453 12.8489 17.2671C12.771 17.29 12.6961 17.3206 12.6243 17.3588C12.5578 17.3955 12.4913 17.4448 12.2128 17.6591L11.8724 17.9227C11.2856 18.3765 10.8031 18.7513 10.245 18.9015C9.75701 19.0328 9.24299 19.0328 8.75504 18.9015C8.19689 18.7513 7.71438 18.3765 7.12757 17.9227L6.78718 17.6591C6.50868 17.4448 6.44221 17.3955 6.37573 17.36C6.30436 17.3211 6.22905 17.29 6.1511 17.2671C6.07889 17.2453 5.99752 17.2327 5.6491 17.1869L5.22161 17.133C4.48581 17.039 3.88067 16.9623 3.37983 16.6746C2.94145 16.4223 2.57766 16.0585 2.32541 15.6202C2.03774 15.1205 1.96095 14.5142 1.86697 13.7784L1.81196 13.3509C1.76726 13.0025 1.75466 12.9211 1.73288 12.8489C1.71035 12.771 1.67962 12.6957 1.64119 12.6243C1.60452 12.5578 1.55523 12.4913 1.34091 12.2128L1.07731 11.8724C0.623454 11.2856 0.248679 10.8031 0.0985399 10.245C-0.0328466 9.75701 -0.0328466 9.24299 0.0985399 8.75504C0.248679 8.19689 0.623454 7.71438 1.07731 7.12757L1.34091 6.78718C1.55523 6.50868 1.60452 6.44221 1.64005 6.37573C1.67886 6.30436 1.70998 6.22905 1.73288 6.1511C1.75466 6.07889 1.76726 5.99752 1.81311 5.6491L1.86697 5.22161C1.96095 4.48581 2.03774 3.88067 2.32541 3.37983C2.57766 2.94145 2.94145 2.57766 3.37983 2.32541C3.87952 2.03774 4.48581 1.96095 5.22161 1.86697L5.6491 1.81196C5.99752 1.76726 6.07889 1.75466 6.1511 1.73288C6.22901 1.71035 6.30431 1.67962 6.37573 1.64119C6.44221 1.60452 6.50868 1.55523 6.78718 1.34091L7.12757 1.07731C7.71438 0.623454 8.19689 0.248679 8.75504 0.0985399C9.24299 -0.0328466 9.75701 -0.0328466 10.245 0.0985399ZM13.7486 6.39751C13.5337 6.18265 13.2422 6.06194 12.9383 6.06194C12.6344 6.06194 12.3429 6.18265 12.128 6.39751L8.3539 10.1716L6.87199 8.68971C6.65584 8.48094 6.36633 8.36542 6.06582 8.36803C5.76532 8.37064 5.47786 8.49117 5.26537 8.70367C5.05287 8.91617 4.93234 9.20362 4.92973 9.50413C4.92712 9.80463 5.04264 10.0941 5.25141 10.3103L7.54361 12.6025C7.75853 12.8174 8.05 12.9381 8.3539 12.9381C8.65781 12.9381 8.94927 12.8174 9.16419 12.6025L13.7486 8.01809C13.9635 7.80317 14.0842 7.5117 14.0842 7.2078C14.0842 6.9039 13.9635 6.61243 13.7486 6.39751Z" fill="white"></path></svg></svg>