<svg width="47" height="107" viewBox="0 0 47 107" fill="none" xmlns="http://www.w3.org/2000/svg">
<g clip-path="url(#clip0_118_744)">
<path d="M40.2314 3.21159L6.56135 22.6539C5.60593 23.2064 4.84619 24.5417 4.84619 25.6353V105.511C4.84619 106.605 5.61744 107.054 6.56135 106.501L40.2314 87.0588C41.1869 86.5062 41.9466 85.1709 41.9466 84.0774V4.20155C41.9466 3.10799 41.1754 2.65906 40.2314 3.21159Z" fill="#976ED3"/>
<path d="M6.56124 22.6539L40.2313 3.21161C41.0832 2.71663 41.7853 3.02743 41.9235 3.87926C41.7968 2.85476 41.0832 1.71516 40.2313 1.22018L38.827 0.414401C37.8716 -0.138134 36.3406 -0.138134 35.3851 0.414401L1.71505 19.8567C1.2431 20.133 0.805674 20.6049 0.494873 21.146L5.34106 23.9432C5.65187 23.4022 6.07778 22.9302 6.56124 22.6539Z" fill="#CFA3FB"/>
<path d="M0 102.714C0 103.808 0.771247 105.143 1.71516 105.695L3.11952 106.501C3.98286 106.996 5.31815 107.042 6.26206 106.639C5.45628 106.95 4.83468 106.49 4.83468 105.511V25.6239C4.83468 25.0713 5.03037 24.4728 5.34117 23.9317L0.50649 21.1345C0.195689 21.6755 0 22.2856 0 22.8267V102.702V102.714Z" fill="#8D49C3"/>
<path d="M7.48229 33.2903L39.3106 14.9185C39.8862 14.5847 40.3466 14.8609 40.3466 15.5171V74.6268C40.3466 75.2829 39.8862 76.0887 39.3106 76.411L7.48229 94.7828C6.90673 95.1166 6.44629 94.8404 6.44629 94.1842V35.086C6.44629 34.4299 6.90673 33.6241 7.48229 33.3018V33.2903Z" fill="white"/>
<path d="M23.4021 15.9544C23.0683 16.1501 22.792 16.6221 22.792 17.002C22.792 17.3818 23.0683 17.543 23.4021 17.3473C23.7359 17.1516 24.0122 16.6796 24.0122 16.2998C24.0122 15.9199 23.7359 15.7587 23.4021 15.9544Z" fill="#CFA3FB"/>
<path d="M23.4021 88.4401C22.0783 89.1998 21.0078 91.0531 21.0078 92.5841C21.0078 94.1151 22.0783 94.7252 23.4021 93.9654C24.7259 93.2057 25.7964 91.3524 25.7964 89.8214C25.7964 88.2904 24.7259 87.6804 23.4021 88.4401Z" fill="#CFA3FB"/>
<path d="M17.6811 22.1013C17.0134 22.4927 16.4724 23.4251 16.4724 24.1963C16.4724 24.9676 17.0134 25.2784 17.6811 24.8985C18.3487 24.5071 18.8898 23.5747 18.8898 22.8035C18.8898 22.0322 18.3487 21.7214 17.6811 22.1013Z" fill="#CFA3FB"/>
<path d="M20.6394 21.848C20.6394 22.366 21.0193 22.5617 21.5027 22.2855L29.4685 17.6925C29.9404 17.4163 30.3318 16.7831 30.3318 16.2651C30.3318 15.7471 29.9519 15.5515 29.4685 15.8277L21.5027 20.4207C21.0308 20.6969 20.6394 21.33 20.6394 21.848Z" fill="#CFA3FB"/>
<path d="M2.68202 35.8572C3.21154 36.168 3.64896 36.9162 3.64896 37.5378C3.64896 38.1594 3.21154 38.4011 2.68202 38.1019C2.15251 37.7911 1.71509 37.0428 1.71509 36.4212C1.71509 35.7996 2.15251 35.5579 2.68202 35.8572Z" fill="#CFA3FB"/>
<path d="M2.68202 43.3164C3.21154 43.6272 3.64896 44.3754 3.64896 44.997C3.64896 45.6186 3.21154 45.8604 2.68202 45.5611C2.15251 45.2503 1.71509 44.5021 1.71509 43.8805C1.71509 43.2589 2.15251 43.0171 2.68202 43.3164Z" fill="#CFA3FB"/>
<path d="M2.38271 36.0068C2.91222 36.3176 3.34964 37.0659 3.34964 37.6875C3.34964 38.3091 2.91222 38.5508 2.38271 38.2515C1.85319 37.9407 1.41577 37.1925 1.41577 36.5709C1.41577 35.9493 1.85319 35.7076 2.38271 36.0068Z" fill="#976ED3"/>
<path d="M2.38271 43.4661C2.91222 43.7769 3.34964 44.5251 3.34964 45.1467C3.34964 45.7683 2.91222 46.01 2.38271 45.7107C1.85319 45.3999 1.41577 44.6517 1.41577 44.0301C1.41577 43.4085 1.85319 43.1668 2.38271 43.4661Z" fill="#976ED3"/>
<path d="M46.8044 17.3818C46.8044 16.7256 46.3439 16.4609 45.7684 16.7832L41.9582 18.9818L13.9401 35.155C13.3645 35.4888 12.9041 36.2831 12.9041 36.9392V96.0489C12.9041 96.7051 13.3645 96.9698 13.9401 96.6475L41.9697 80.4628L45.7684 78.2642C46.3439 77.9304 46.8044 77.1361 46.8044 76.48V17.3818Z" fill="white" stroke="#27DEBF" stroke-width="0.35" stroke-miterlimit="10"/>
<path d="M13.4795 96.9929C13.3414 96.9929 13.2263 96.9583 13.1111 96.9008C12.8579 96.7511 12.7083 96.4518 12.7083 96.0604V36.9507C12.7083 36.214 13.2032 35.3622 13.8363 34.9938L41.8545 18.8207L42.0502 19.166L14.032 35.3392C13.5255 35.6269 13.0996 36.3752 13.0996 36.9507V96.0604C13.0996 96.3022 13.1687 96.4864 13.3068 96.5554C13.4335 96.6245 13.6291 96.6015 13.8363 96.4864L41.866 80.3017L42.0617 80.647L14.032 96.8317C13.8363 96.9468 13.6522 97.0044 13.468 97.0044L13.4795 96.9929Z" fill="#976ED3"/>
<path d="M42.0617 80.647L41.866 80.3017L45.6647 78.1031C46.1712 77.8153 46.5971 77.0671 46.5971 76.4915V17.3818C46.5971 17.1401 46.528 16.9559 46.3899 16.8868C46.2633 16.8178 46.0676 16.8408 45.8604 16.9559L42.0502 19.1545L41.8545 18.8092L45.6647 16.6106C45.9985 16.4149 46.3323 16.3918 46.5971 16.5415C46.8503 16.6911 47 16.9904 47 17.3818V76.4915C47 77.2282 46.505 78.0801 45.8719 78.4484L42.0732 80.647H42.0617Z" fill="#976ED3"/>
<path d="M29.8599 31.1261C33.4283 29.0656 36.3176 30.7347 36.3176 34.8557C36.3176 38.9767 33.4283 43.9725 29.8599 46.033C26.2914 48.0935 23.4021 46.4244 23.4021 42.3034C23.4021 38.1824 26.2914 33.1866 29.8599 31.1261Z" fill="#8D49C3"/>
<path d="M29.8599 34.3607C31.011 33.6931 31.9549 34.2341 31.9549 35.5694C31.9549 36.9047 31.0225 38.5278 29.8599 39.1954C28.7088 39.863 27.7649 39.322 27.7649 37.9867C27.7649 36.6514 28.6973 35.0284 29.8599 34.3607Z" fill="#8D49C3"/>
<path d="M33.9348 41.4862C33.9348 39.2876 32.3923 38.4012 30.493 39.4948L29.3073 40.1854C27.408 41.279 25.8655 43.9496 25.8655 46.1482V46.7353C26.959 47.1036 28.3519 46.9079 29.8483 46.0331C31.4023 45.1352 32.8182 43.6848 33.9348 41.9927V41.4862Z" fill="#CFA3FB"/>
<path opacity="0.7" d="M29.8599 34.3607C31.011 33.6931 31.9549 34.2341 31.9549 35.5694C31.9549 36.9047 31.0225 38.5278 29.8599 39.1954C28.7088 39.863 27.7649 39.322 27.7649 37.9867C27.7649 36.6514 28.6973 35.0284 29.8599 34.3607Z" fill="white"/>
<path opacity="0.7" d="M33.9348 41.4861C33.9348 39.2874 32.3923 38.4011 30.493 39.4946L29.3073 40.1853C27.408 41.2789 25.8655 43.9494 25.8655 46.1481V46.7351C26.959 47.1035 28.3519 46.9078 29.8483 46.033C31.4023 45.1351 32.8182 43.6847 33.9348 41.9926V41.4861Z" fill="white"/>
<path d="M17.3704 55.1038L25.6814 50.3037C26.0613 50.085 26.3721 50.2577 26.3721 50.7066V50.9829C26.3721 51.4203 26.0613 51.9498 25.6814 52.18L17.3704 56.9802C16.9905 57.1989 16.6797 57.0262 16.6797 56.5773V56.301C16.6797 55.8636 16.9905 55.3341 17.3704 55.1038Z" fill="#CFA3FB"/>
<path opacity="0.1" d="M17.3704 55.1038L25.6814 50.3037C26.0613 50.085 26.3721 50.2577 26.3721 50.7066V50.9829C26.3721 51.4203 26.0613 51.9498 25.6814 52.18L17.3704 56.9802C16.9905 57.1989 16.6797 57.0262 16.6797 56.5773V56.301C16.6797 55.8636 16.9905 55.3341 17.3704 55.1038Z" fill="black"/>
<path d="M17.025 60.894L42.1539 46.3899C42.3495 46.2748 42.4992 46.3669 42.4992 46.5856V49.521C42.4992 49.7397 42.3495 50.0044 42.1539 50.1195L17.025 64.6236C16.8408 64.7387 16.6797 64.6466 16.6797 64.4279V61.4926C16.6797 61.2738 16.8293 61.0091 17.025 60.894Z" fill="#CFA3FB"/>
<path opacity="0.2" d="M17.025 60.894L42.1539 46.3899C42.3495 46.2748 42.4992 46.3669 42.4992 46.5856V49.521C42.4992 49.7397 42.3495 50.0044 42.1539 50.1195L17.025 64.6236C16.8408 64.7387 16.6797 64.6466 16.6797 64.4279V61.4926C16.6797 61.2738 16.8293 61.0091 17.025 60.894Z" fill="white"/>
<path d="M17.3704 68.146L25.6814 63.3458C26.0613 63.1271 26.3721 63.2998 26.3721 63.7487V64.025C26.3721 64.4624 26.0613 64.9919 25.6814 65.2221L17.3704 70.0223C16.9905 70.241 16.6797 70.0683 16.6797 69.6194V69.3431C16.6797 68.9057 16.9905 68.3762 17.3704 68.146Z" fill="#CFA3FB"/>
<path opacity="0.1" d="M17.3704 68.146L25.6814 63.3458C26.0613 63.1271 26.3721 63.2998 26.3721 63.7487V64.025C26.3721 64.4624 26.0613 64.9919 25.6814 65.2221L17.3704 70.0223C16.9905 70.241 16.6797 70.0683 16.6797 69.6194V69.3431C16.6797 68.9057 16.9905 68.3762 17.3704 68.146Z" fill="black"/>
<path d="M17.025 73.9361L42.1539 59.4321C42.3495 59.3169 42.4992 59.409 42.4992 59.6277V62.5631C42.4992 62.7818 42.3495 63.0465 42.1539 63.1617L17.025 77.6657C16.8408 77.7808 16.6797 77.6887 16.6797 77.47V74.5347C16.6797 74.316 16.8293 74.0512 17.025 73.9361Z" fill="#CFA3FB"/>
<path opacity="0.2" d="M17.025 73.9361L42.1539 59.4321C42.3495 59.3169 42.4992 59.409 42.4992 59.6277V62.5631C42.4992 62.7818 42.3495 63.0465 42.1539 63.1617L17.025 77.6657C16.8408 77.7808 16.6797 77.6887 16.6797 77.47V74.5347C16.6797 74.316 16.8293 74.0512 17.025 73.9361Z" fill="white"/>
<path d="M27.0513 75.6052L36.9739 69.8727C37.3537 69.654 37.6645 69.8266 37.6645 70.2756V73.349C37.6645 73.7865 37.3537 74.316 36.9739 74.5462L27.0513 80.2787C26.6714 80.4974 26.3606 80.3248 26.3606 79.8758V76.8024C26.3606 76.365 26.6714 75.8354 27.0513 75.6052Z" fill="#CFA3FB"/>
<path opacity="0.1" d="M27.0513 75.6052L36.9739 69.8727C37.3537 69.654 37.6645 69.8266 37.6645 70.2756V73.349C37.6645 73.7865 37.3537 74.316 36.9739 74.5462L27.0513 80.2787C26.6714 80.4974 26.3606 80.3248 26.3606 79.8758V76.8024C26.3606 76.365 26.6714 75.8354 27.0513 75.6052Z" fill="black"/>
</g>
<defs>
<clipPath id="clip0_118_744">
<rect width="47" height="106.915" fill="white"/>
</clipPath>
</defs>
</svg>
