<?xml version="1.0" encoding="UTF-8"?>
<svg width="43" height="42" id="Layer_2" data-name="Layer 2" xmlns="http://www.w3.org/2000/svg" viewBox="0 0 38.38 38.38">
  <defs>
    <style>
      .cls-1 {
        fill: #f47721;
      }

      .cls-2 {
        fill: #fdfeff;
      }

      .cls-3 {
        fill: #fff;
      }
    </style>
  </defs>
  <g id="Layer_1-2" data-name="Layer 1">
    <g>
      <rect class="cls-3" x="0" y="0" width="38.38" height="38.38" rx="8.53" ry="8.53"/>
      <path class="cls-2" d="M29.85,0C34.56,0,38.38,3.82,38.38,8.53v21.32c0,4.71-3.82,8.53-8.53,8.53H8.53c-4.71,0-8.53-3.82-8.53-8.53V8.53C0,3.82,3.82,0,8.53,0h21.32Z"/>
      <path class="cls-1" d="M29.85,0c4.71,0,8.53,3.82,8.53,8.53v21.32c0,4.71-3.82,8.53-8.53,8.53H8.53c-4.71,0-8.53-3.82-8.53-8.53V8.53C0,3.82,3.82,0,8.53,0h21.32ZM20.25,19.94h-.51c-.45,0-.82.37-.82.82v5.64c0,.45.37.82.82.82s.82-.37.82-.82v-3.7l1.39,1.96c.29.4.89.4,1.18,0l1.39-1.96v3.7c0,.45.37.82.82.82s.82-.37.82-.82v-5.64c0-.45-.37-.82-.82-.82h-.51c-.19,0-.38.09-.49.25l-1.8,2.7-1.8-2.7c-.11-.16-.3-.25-.49-.25ZM33,19.94c-.45,0-.82.37-.82.82v3.44c0,1.08-.61,1.64-1.62,1.63-1,0-1.62-.57-1.61-1.68v-3.4c0-.45-.37-.82-.82-.82-.45,0-.82.37-.82.82v3.43c0,2.01,1.23,3.03,3.24,3.03s3.28-1.01,3.28-3.08v-3.38c0-.45-.37-.82-.82-.82ZM9.88,19.94h-4.81c-.45,0-.82.37-.82.82s.37.82.82.82h1.58v4.81c0,.45.37.82.82.82s.82-.37.82-.82v-4.81h1.58c.45,0,.82-.37.82-.82s-.37-.82-.82-.82ZM17,19.94h-4.46c-.45,0-.82.37-.82.82v5.63c0,.45.37.82.82.82h4.46c.45,0,.82-.37.82-.82,0-.45-.37-.82-.82-.82h-3.64v-1.17h3.16c.45,0,.82-.37.82-.82s-.37-.82-.82-.82h-3.16v-1.17h3.64c.45,0,.82-.37.82-.82,0-.45-.37-.82-.82-.82h0ZM8.96,11.34h-.15c-.64.04-1.08.32-1.33.7-.29-.43-.83-.73-1.64-.69l-.02.03c-.09.15-.45.82.12,1.55.12.12.4.47.28.92l-1.65,2.67c-.13.22-.07.5.13.64.43.3,1.29.71,2.77.71s2.34-.41,2.77-.71l.06-.05c.16-.15.19-.4.07-.6l-1.65-2.67v.05s0-.07,0-.07c-.09-.4.13-.72.26-.86l.03-.03c.57-.73.22-1.4.12-1.55v-.03s-.18,0-.18,0ZM14.31,12.59c-.57-1.12-1.3-1.32-1.67-1.02-.28.22-.93,1.11-.97,1.17-.72,1.02-.67,1.26.24,1.84.52.33.93-.09,1.11-.22-.09.54-.35,1.38-.74,1.97-.21-.16-.37-.28-.47-.37-.12-.11-.31-.1-.43.01-.06.06-.09.13-.08.21,0,.08.04.15.09.21.96.87,2.21,1.37,3.55,1.37,1.34,0,2.6-.49,3.56-1.37.12-.11.13-.3.01-.42-.12-.12-.31-.12-.43-.01-.07.07-.15.13-.23.19l-.42-.94c-.07-.16-.14-.36-.22-.61.04-.1.13-.2.25-.33.09-.09.16-.18.22-.27.28-.44.12-.7.03-.87-.2-.4-.51-.27-.73-.03-.28.29-.55.42-.98.52-.36.08-.64.04-.88-.1-.32-.2-.82-.94-.82-.94ZM24.71,11.45c-1.2,1.14-.05,3.62-2.23,4.67-.24.12-.44-.27-.76-.27-.91,0-2.65.81-2.72,1.21-.06.33.69.6,2.87.6,1.9,0,2.52-2.9,3.19-2.9.67,0,.36,2.63.28,2.9h.7c-.06-.27-.1-1.1-.1-2.26,0-1.17.21-1.42.38-2.3.15-.76-.99-1.43-1.61-1.65h0ZM31.54,11.54h-1.95c-1.26,0-2.31.98-2.4,2.24l-.14,2.02c-.07.96.69,1.77,1.65,1.78h3.73c.96,0,1.72-.81,1.66-1.78l-.14-2.02c-.09-1.26-1.14-2.24-2.4-2.24h0ZM14.95,16.19c.59,0,1.04.29,1.2.82-.4.1-.8.16-1.21.15-.61,0-.83-.06-1.23-.16.16-.47.68-.82,1.23-.82ZM29.68,13.22v.06c0,.49.4.89.88.89s.89-.4.89-.89v-.06c0-.22.79-.22.79,0v.06c0,.92-.75,1.67-1.68,1.67s-1.67-.75-1.67-1.67v-.06c0-.22.78-.22.79,0Z"/>
    </g>
  </g>
</svg>