<?xml version="1.0" encoding="UTF-8"?>
<svg width="43" height="42" id="Layer_2" data-name="Layer 2" xmlns="http://www.w3.org/2000/svg" viewBox="0 0 38.66 38.38">
  <defs>
    <style>
      .cls-1 {
        fill: #040002;
      }

      .cls-2 {
        fill: #f3f1f2;
      }

      .cls-3 {
        fill: #ff6821;
      }
    </style>
  </defs>
  <g id="Layer_1-2" data-name="Layer 1">
    <g>
      <rect class="cls-3" x=".14" y="0" width="38.38" height="38.38" rx="8.53" ry="8.53"/>
      <rect class="cls-1" y="13.36" width="38.66" height="11.67"/>
      <g>
        <path class="cls-2" d="M14.92,19.96h-3.51c.16.66.7,1.15,1.39,1.15.39,0,.77-.17,1.03-.46l.85.02c-.37.72-1.1,1.17-1.91,1.17-1.21,0-2.16-1.05-2.16-2.23s.94-2.22,2.17-2.22c1.2,0,2.16.98,2.16,2.18h0c0,.13,0,.27-.02.4h0ZM12.78,18.11c-.69,0-1.33.55-1.37,1.24h2.74c-.05-.7-.68-1.24-1.37-1.24Z"/>
        <path class="cls-2" d="M18.43,21.73v-2.3c0-.72-.21-1.33-1.05-1.33-.78,0-1.12.6-1.12,1.31v2.31h-.79v-4.23h.74v.45h.01c.31-.4.75-.56,1.24-.56.6,0,1.17.23,1.5.76.21.32.27.71.27,1.09v2.51h-.79Z"/>
        <path class="cls-2" d="M23.45,21.73v-.6h-.02c-.35.49-.91.71-1.5.71-1.27,0-2.2-.95-2.2-2.21s.92-2.25,2.2-2.25c.53,0,1.1.21,1.44.63h.01v-1.94h.79v5.66h-.73ZM21.98,18.11c-.84,0-1.45.69-1.45,1.51s.63,1.49,1.45,1.49c.82,0,1.48-.67,1.48-1.49,0,0,0,0,0,0,0-.85-.6-1.51-1.47-1.51h0Z"/>
        <polygon class="cls-2" points="26.48 23.15 25.66 23.15 26.28 21.65 24.59 17.5 25.44 17.5 26.69 20.78 27.97 17.5 28.82 17.5 26.48 23.15 26.48 23.15"/>
        <path class="cls-2" d="M31.09,21.84c-1.25,0-2.29-1-2.29-2.26s1.06-2.2,2.29-2.2,2.28.96,2.28,2.22-1,2.24-2.28,2.24ZM31.09,18.11c-.83,0-1.51.66-1.51,1.49,0,.83.66,1.51,1.49,1.51.83,0,1.51-.66,1.51-1.49,0,0,0-.02,0-.02,0-.82-.67-1.49-1.49-1.49Z"/>
        <polygon class="cls-2" points="34.02 21.73 34.02 16.08 34.81 16.08 34.81 21.73 34.02 21.73 34.02 21.73"/>
        <path class="cls-2" d="M4.63,20.9c.03.11.07.22.13.33.05.08.12.16.2.23.26.22.6.34.95.33.36,0,.72-.09,1.04-.27v-.76c-.28.18-.6.28-.94.29-.4,0-.61-.25-.61-.73v-2.07h1.33v-.73h-1.33v-1.36h-.78v1.36h-.77v.73h.73v1.88c0,.26,0,.52.05.77h0Z"/>
        <path class="cls-2" d="M9.44,18.21c.25,0,.52.14.8.41l.43-.72c-.35-.32-.78-.47-1.02-.47h-.05c-.28,0-.76,0-1.15.62l-.02.03v-.57s-.82,0-.82,0v4.2h.82v-2.19c0-.33.1-.65.3-.92.2-.26.44-.39.7-.39h0Z"/>
      </g>
    </g>
  </g>
</svg>