<svg width="100" height="100" viewBox="0 0 100 100" fill="none" xmlns="http://www.w3.org/2000/svg">
<path d="M25.8705 32.292L25.2342 31.192L25.3398 31.1311L0 45.7608V47.2081V47.2276V49.5502C0 52.6661 3.36621 54.6194 6.07148 53.0733C8.65879 51.5946 10.2557 48.8428 10.2557 45.8627V41.3067L25.8705 32.292Z" fill="#AE392E"/>
<path d="M0 47.208V49.5504C0 52.6662 3.36621 54.6196 6.07148 53.0735C8.65879 51.5947 10.2557 48.843 10.2557 45.8629V41.0641L0 47.208Z" fill="#BF93E9"/>
<path d="M74.9256 3.96924L94.1805 37.3194L55.6709 15.086L74.9256 3.96924Z" fill="#E6C190"/>
<path d="M94.1804 37.3194L46.0726 65.0946L26.7886 31.761L7.53394 42.8778V76.228L46.0435 98.4616L94.1804 70.6698V37.3194Z" fill="#F1A828"/>
<path d="M46.0435 65.1113L46.0726 65.0945L26.7886 31.6042L7.53394 42.7209V76.2279L46.0435 98.4615V65.1113Z" fill="#F2C980"/>
<path d="M11.9292 51.457L41.23 68.3486V84.5656L11.9292 67.6488V51.457Z" fill="white"/>
<path d="M13.1963 53.5251L39.9297 68.9718V82.3486L13.1963 66.9476V53.5251Z" fill="#E8CAFF"/>
<g opacity="0.2">
<path d="M35.9656 66.6815L26.1677 61.0201L32.2363 77.9164L39.9296 82.3487V77.7188L35.9656 66.6815Z" fill="white"/>
</g>
<g opacity="0.2">
<path d="M27.5119 75.1949L21.4398 58.2884L13.1963 53.5251V60.0414L16.3238 68.7492L27.5119 75.1949Z" fill="white"/>
</g>
<path d="M61.8116 89.3578V67.1221L50.7261 73.5223V95.758L61.8116 89.3578Z" fill="white"/>
<path d="M65.2983 79.975L92.7802 64.1084V49.2424L65.2983 65.0864V79.975Z" fill="white"/>
<path d="M60.5078 88.6127V69.3668L52.0261 74.2639V93.5098L60.5078 88.6127Z" fill="#EDD7FF"/>
<g opacity="0.2">
<path d="M60.5077 82.5299V71.0703L52.5591 93.202L57.7515 90.2041L60.5077 82.5299Z" fill="white"/>
</g>
<g opacity="0.2">
<path d="M52.0261 79.8196V89.8473L59.0871 70.1871L54.5435 72.8104L52.0261 79.8196Z" fill="white"/>
</g>
<path d="M66.4924 65.9117V77.7933L91.4801 63.3667V51.4851L66.4924 65.9117Z" fill="#E8CAFF"/>
<g opacity="0.1">
<path d="M91.48 58.5401V51.485L83.4822 56.1026L78.0984 71.0928L89.2929 64.6295L91.48 58.5401Z" fill="white"/>
</g>
<g opacity="0.2">
<path d="M68.9596 64.4873L66.4924 71.3565V77.7934L73.3715 73.8217L78.7553 58.8317L68.9596 64.4873Z" fill="white"/>
</g>
<path d="M79.6188 56.679C79.6188 59.7948 82.9946 61.7481 85.7075 60.202C88.3022 58.7233 89.9036 55.9715 89.9036 52.9915V48.1926L79.6187 54.3366L79.6188 56.679Z" fill="#D0A3FB"/>
<path d="M99.9712 42.1452L76.5952 1.53857L25.2339 31.1919L49.1745 72.571L59.4302 66.4282V68.7634C59.4302 71.8792 62.7378 73.8325 65.396 72.2864C67.9384 70.8077 69.5073 68.056 69.5073 65.0759V60.3921L99.9712 42.1452Z" fill="#D0A3FB"/>
<path d="M79.6188 56.679C79.6188 59.7948 82.9946 61.7481 85.7075 60.202C88.3022 58.7233 89.9036 55.9715 89.9036 52.9915V48.1926L79.6187 54.3366L79.6188 56.679Z" fill="#BF93E9"/>
<path d="M59.4302 66.4283V68.7635C59.4302 71.8793 62.7378 73.8326 65.396 72.2865C67.9384 70.8078 69.5073 68.0561 69.5073 65.076V60.3922L59.4302 66.4283Z" fill="#BF93E9"/>
<path d="M79.6471 54.3185L79.6192 54.27V54.1993L79.5891 54.2177L56.0508 13.3999L45.7786 19.3306L69.5282 60.3388L69.5209 60.3433V62.6856C69.5209 65.8015 72.8354 67.7548 75.4991 66.2087C78.0467 64.73 79.619 61.9782 79.619 58.9981V54.3353L79.6471 54.3185Z" fill="#A263D5"/>
<path d="M69.5456 60.3686L69.5282 60.3387L69.521 60.3432V62.6856C69.521 65.8014 72.8354 67.7547 75.4991 66.2086C78.0468 64.7299 79.619 61.9782 79.619 58.9981V54.3352L69.5456 60.3686Z" fill="#9156C0"/>
<path d="M79.619 54.2697V54.1992L79.5891 54.2176L79.619 54.2697Z" fill="#AE392E"/>
<path d="M99.9713 42.1452L76.5953 1.53857L66.21 7.53447L89.8742 48.1927L89.9039 48.1749V50.4038C89.9039 53.5196 93.2178 55.4729 95.8809 53.9269C98.4279 52.4481 100 49.6964 100 46.7163L99.9713 42.1452Z" fill="#A263D5"/>
<path d="M99.9712 42.1451L89.9038 48.175V50.4039C89.9038 53.5197 93.2177 55.4731 95.8808 53.927C98.4278 52.4483 99.9999 49.6965 99.9999 46.7164L99.9712 42.1451Z" fill="#9156C0"/>
<path d="M60.5079 78.9938L51.5803 84.1338V86.403L60.5079 81.2487V78.9938Z" fill="white"/>
<path d="M59.426 66.4197L35.5063 25.2611L25.3396 31.1308L0 45.7607V47.2275L25.8705 32.292L49.1725 72.5711L49.1746 72.5697V74.9033C49.1746 78.0191 52.5408 79.9724 55.2461 78.4263C57.8336 76.9476 59.4303 74.1959 59.4303 71.2158V66.417L59.426 66.4197Z" fill="#A263D5"/>
<path d="M25.234 31.1918L25.3396 31.1309L0 45.7607V47.2275L25.8705 32.292L25.234 31.1918Z" fill="#8B4FBB"/>
<path d="M49.1748 72.5556V74.8978C49.1748 78.0136 52.541 79.967 55.2463 78.4209C57.8338 76.9422 59.4305 74.1904 59.4305 71.2103V66.4115L49.1748 72.5556Z" fill="#9156C0"/>
</svg>
